<svg width="78" height="26" viewBox="0 0 78 26" fill="none" xmlns="http://www.w3.org/2000/svg">
<path fill-rule="evenodd" clip-rule="evenodd" d="M28.8926 5H28.7539C28.4502 5.00653 28.2753 5.02774 28.2753 5.02774H18.6686L12 21L12.0825 20.9984H12.1486C12.9194 20.9853 16.6928 20.9315 22.0441 20.9168H22.5509L23.0659 20.9152H23.5908L24.6637 20.9135C32.108 20.9135 41 12.8409 41 12.8409L35.9821 7.86326C33.3774 5.28062 30.2048 4.99511 28.8926 5.00163V5ZM33.9381 0C34.723 0.014625 40.7501 0.25025 44.8467 4.3615L48.2332 7.76263L48.3828 7.9105L61.3811 0H78L54.99 13.8547L66.196 25.103H53.2837L46.9137 18.7086C46.5952 18.9377 37.0468 25.7432 24.1361 25.7432L0 26L10.8713 0H33.9381Z" fill="#14161B"/>
</svg>
