<svg width="176" height="39" viewBox="0 0 176 39" fill="none" xmlns="http://www.w3.org/2000/svg">
<path fill-rule="evenodd" clip-rule="evenodd" d="M12.6006 24.1048L0 14.8952H15.5756L20.3884 0L25.2012 14.8952H29.8562L25.2105 18.2887H22.7507L20.3884 10.9835L18.0261 18.2887H10.3868L16.5687 22.8072L15.8076 25.1598L11.1665 28.5533L12.6006 24.1048ZM42.4568 20.2305H51.9061V22.6811H45.3158V25.5986H51.7669V28.0585H45.3158V31.1767H51.9061V33.6553H42.4568V20.2305ZM83.2011 28.7914C83.2011 25.9556 85.4868 23.6567 88.3063 23.6567C91.1258 23.6567 93.4115 25.9556 93.4115 28.7914C93.4115 31.6272 91.1258 33.926 88.3063 33.926C86.9352 33.9848 85.6025 33.4627 84.6321 32.4868C83.6618 31.5108 83.1427 30.1704 83.2011 28.7914ZM90.7939 28.7914C90.7939 27.279 89.8657 25.9907 88.3063 25.9907C86.7469 25.9907 85.8465 27.2977 85.8465 28.7914C85.8465 30.2851 86.7283 31.6294 88.3063 31.6294C89.8843 31.6294 90.7986 30.3224 90.7986 28.7914H90.7939ZM96.4979 34.6309C96.2565 35.1537 95.8156 35.3357 95.1566 35.3357C94.8801 35.3248 94.608 35.2631 94.3537 35.1537L93.9731 37.4456C94.3884 37.5342 94.8111 37.5826 95.2355 37.5903C96.897 37.5903 98.1779 37.0862 98.902 35.2564L103.446 23.9368H100.703L98.1779 30.7052L95.6578 23.9368H92.9335L96.8599 33.8047L96.4979 34.6309ZM63.6203 25.972C64.6599 25.972 65.059 26.6162 65.059 27.5217V33.6646H67.6255V26.6348C67.6255 24.6276 66.5627 23.6941 64.7805 23.6941C63.4527 23.7096 62.2145 24.3706 61.4575 25.4679C61.0955 24.3616 60.1951 23.6941 58.775 23.6941C57.552 23.714 56.3976 24.2656 55.6097 25.2065V23.9368H53.0664V33.6553H55.6097V27.1203C56.0613 26.444 56.8014 26.0191 57.61 25.972C58.6543 25.972 59.0534 26.6162 59.0534 27.5217V33.6646H61.6153V27.1016C62.0693 26.4284 62.8123 26.0097 63.6203 25.972ZM69.1246 23.9368V37.3709L71.668 37.3896V32.437C72.3731 33.3795 73.4794 33.9316 74.6522 33.926C77.1305 33.926 78.9359 32.0215 78.9359 28.7914C78.9359 25.5612 77.1305 23.6941 74.6522 23.6941C73.4837 23.6885 72.3798 24.2324 71.668 25.1645V23.9368H69.1246ZM71.668 27.0783C72.1931 26.3989 72.9939 25.9927 73.8493 25.972C75.3112 25.972 76.2905 27.1016 76.2905 28.7914C76.2905 30.4811 75.3112 31.6294 73.8493 31.6294C72.996 31.6004 72.1985 31.1959 71.668 30.5232V27.0783ZM82.3796 20.2305H79.8363V33.6646H82.3796V20.2305ZM115.577 27.5217C115.577 26.6162 115.178 25.972 114.134 25.972C113.332 26.0141 112.597 26.4324 112.148 27.1016V33.6646H109.586V27.5217C109.586 26.6162 109.187 25.972 108.142 25.972C107.324 26.0097 106.571 26.4358 106.114 27.1203V33.6553H103.571V23.9368H106.114V25.2065C106.901 24.2663 108.053 23.7148 109.275 23.6941C110.7 23.6941 111.595 24.3616 111.962 25.4679C112.717 24.3688 113.957 23.7073 115.285 23.6941C117.067 23.6941 118.125 24.6276 118.125 26.6348V33.6646H115.564L115.577 27.5217ZM124.024 23.6941C126.911 23.6941 128.87 25.8693 128.87 29.0528V29.6176H121.685C121.843 30.8452 122.827 31.8722 124.47 31.8722C125.419 31.8709 126.336 31.5281 127.055 30.9059L128.173 32.5583C127.053 33.4794 125.638 33.9589 124.191 33.9074C121.249 33.9074 119.026 31.9142 119.026 28.7727C118.992 27.4244 119.505 26.1204 120.449 25.1619C121.392 24.2034 122.683 23.6733 124.024 23.6941ZM121.643 27.8952H126.41C126.385 27.2885 126.118 26.7175 125.669 26.3116C125.22 25.9057 124.627 25.6991 124.024 25.7386C122.789 25.7023 121.742 26.6465 121.643 27.8858V27.8952ZM136.24 27.7831C136.24 26.4341 135.539 25.972 134.457 25.972C133.584 25.9859 132.768 26.411 132.253 27.1203V33.6553H129.71V23.9368H132.253V25.2065C133.107 24.23 134.343 23.6776 135.636 23.6941C137.762 23.6941 138.783 24.9031 138.783 26.7982V33.6646H136.24V27.7831ZM140.802 26.1727V31.2467C140.802 32.9785 141.763 33.9074 143.545 33.9074C144.305 33.964 145.06 33.7418 145.67 33.2819L145.127 31.3494C144.874 31.541 144.563 31.6399 144.246 31.6294C143.689 31.6294 143.368 31.1673 143.368 30.5652V26.1727H145.327V23.9368H143.368V21.2808H140.802V23.9368H139.201V26.1727H140.802ZM147.884 30.6165C148.779 30.6165 149.504 31.3459 149.504 32.2456C149.504 33.1453 148.779 33.8747 147.884 33.8747C146.99 33.8747 146.264 33.1453 146.264 32.2456C146.274 31.3501 146.994 30.6266 147.884 30.6165ZM149.495 28.7914C149.495 25.9556 151.78 23.6567 154.6 23.6567C157.419 23.6567 159.705 25.9556 159.705 28.7914C159.705 31.6272 157.419 33.926 154.6 33.926C153.229 33.9848 151.896 33.4627 150.926 32.4868C149.955 31.5108 149.436 30.1704 149.495 28.7914ZM157.083 28.7914C157.083 27.279 156.178 25.9907 154.6 25.9907C153.022 25.9907 152.135 27.2977 152.135 28.7914C152.135 30.2851 153.017 31.6294 154.6 31.6294C156.182 31.6294 157.083 30.3224 157.083 28.7914ZM160.605 23.9368H163.149V25.2671C163.901 24.3223 165.027 23.756 166.23 23.7174V26.2147C166 26.1693 165.765 26.1489 165.53 26.154C164.69 26.154 163.566 26.6208 163.149 27.2417V33.6646H160.605V23.9368ZM167.753 34.3088C168.532 35.1427 169.639 35.5856 170.774 35.5178C171.995 35.5178 173.438 34.9716 173.438 33.0625V32.0729C172.736 33.0243 171.632 33.5908 170.454 33.604C168.031 33.604 166.189 31.8908 166.189 28.6513C166.189 25.4118 168.013 23.6941 170.454 23.6941C171.627 23.6897 172.734 24.2435 173.438 25.1878V23.9368H176V33.0018C176 36.7081 173.16 37.6136 170.774 37.6136C169.246 37.7009 167.746 37.1794 166.597 36.1619L167.753 34.3088ZM173.438 27.0783C172.922 26.3879 172.116 25.9789 171.257 25.972C169.813 25.972 168.811 26.9803 168.811 28.6513C168.811 30.3224 169.813 31.3307 171.257 31.3307C172.114 31.3136 172.917 30.9047 173.438 30.2197V27.0783ZM32.989 39L28.1762 24.1048L40.7767 14.8952H35.0403L24.2126 22.8072L26.5703 30.1171L20.3884 25.5986L14.2064 30.1171L9.56068 33.5106L7.78778 39L20.3884 29.795L32.989 39Z" fill="#14161B"/>
</svg>
