<svg width="178" height="31" viewBox="0 0 178 31" fill="none" xmlns="http://www.w3.org/2000/svg">
<path fill-rule="evenodd" clip-rule="evenodd" d="M170.883 6.18766V4.5975H171.674C172.148 4.5975 172.401 4.83951 172.401 5.35806C172.401 5.91113 172.148 6.18766 171.674 6.18766H170.883ZM170.883 10.6814V7.63955H171.547L172.686 10.6814H174.331L173.066 7.25927C173.603 6.94804 174.046 6.2914 174.046 5.35806C174.046 3.94069 173.256 3.0764 171.705 3.0764H169.302V10.6814H170.883ZM176.482 6.98257C176.482 10.1974 174.647 12.5134 171.484 12.5134C168.353 12.5134 166.487 10.1629 166.487 7.01743C166.487 3.8026 168.353 1.48659 171.421 1.48659C174.616 1.48659 176.482 3.69886 176.482 6.98257ZM178 6.98257C178 3.0764 175.47 0 171.421 0C167.53 0 165 3.14579 165 7.01743C165 10.9927 167.53 14 171.484 14C175.438 14 178 10.8197 178 6.98257ZM123.504 25H126.496V6.99176H123.504V25ZM123 3.12074C123 1.90901 123.882 1 124.984 1C126.087 1 127 1.90901 127 3.12074C127 4.29886 126.087 5.24132 124.984 5.24132C123.882 5.24132 123 4.29886 123 3.12074ZM15.4506 25H10.322L4.99882 8.84687V25H0V2H8.11481L13.0812 17.5882L18.0474 2H26V25H20.7739V8.84687L15.4506 25ZM34.2055 18.0461C34.2055 19.3439 34.6905 20.2088 35.9513 20.2088C37.1479 20.2088 37.7945 19.3439 37.7945 18.0461V7H43V24.8003H37.8268V23.6692C37.4387 24.1016 36.3395 25 34.3994 25C30.5196 25 29 22.3714 29 18.6783V7H34.2055V18.0461ZM53 6.85148H50.7097V4H45.5161V6.85148H44V11.3802H45.5161V20.1358C45.5161 23.2221 47.0645 25 50.387 25C51.2902 25 51.9354 24.933 52.3549 24.8323C52.5805 24.7988 52.8065 24.7316 53 24.6646V20.1358H52.1292C51.1936 20.1358 50.7097 19.7332 50.7097 18.5254V11.3802H53V6.85148ZM60.525 14.0308H66.599C66.4699 12.5985 65.4036 11.3616 63.4973 11.3616C61.6881 11.3616 60.6542 12.6312 60.525 14.0308ZM60.3956 17.7089C60.6219 19.369 61.8818 20.378 63.9173 20.378C65.759 20.378 66.8253 19.3365 67.4391 18.3274L71.4132 20.6709C70.444 22.689 68.2146 25 63.885 25C58.6187 25 55 21.6473 55 16.0813C55 10.8733 58.4572 7 63.4973 7C68.7963 7 71.9949 10.4829 71.9949 15.6908C71.9949 15.7902 71.996 15.893 71.9973 16.0006C72.0025 16.457 72.0086 16.9977 71.9301 17.7089H60.3956ZM77.0511 22.0751H76.3363V4.92477H77.0511C82.4979 4.89158 85.4935 8.08224 85.4935 13.4999C85.4935 18.9178 82.4639 22.1084 77.0511 22.0751ZM89 13.4667C89 6.48691 84.5064 2 76.915 2H73V25H76.915C84.4382 25 89 20.38 89 13.4667ZM94.282 14.4212H104.778C104.55 11.557 102.471 9.66907 99.4487 9.66907C96.5891 9.66907 94.6719 11.4593 94.282 14.4212ZM94.1845 16.9276C94.412 20.2151 96.524 22.2332 99.806 22.2332C102.568 22.2332 104.096 20.8661 105.233 18.783L107.605 20.0198C106.5 22.6888 103.868 25 99.806 25C94.5744 25 91 21.4846 91 16.0488C91 10.7431 94.542 7 99.4812 7C104.583 7 107.897 10.32 107.995 15.528C107.995 15.5932 107.996 15.6638 107.997 15.7388V15.7442V15.7449C108.002 16.0809 108.009 16.5043 107.93 16.9276H94.1845ZM115.733 14.2795C115.253 14.1537 114.778 14.029 114.302 13.8446C113.103 13.4167 112.503 12.6928 112.503 11.607C112.503 10.2577 113.47 9.43511 114.969 9.43511C116.702 9.43511 117.535 10.521 117.634 12.3308H120.567C120.533 9.13883 118.767 7 115.036 7C111.77 7 109.438 8.90862 109.438 11.8043C109.438 13.9103 110.304 15.4571 112.67 16.4772C113.374 16.7751 114.005 16.9531 114.622 17.1272C115.027 17.2413 115.426 17.3538 115.835 17.4973C117.168 17.9908 117.901 18.616 117.901 20.064C117.901 21.6435 116.601 22.4992 115.036 22.4663C112.803 22.4663 112.07 20.9854 112.07 19.2743H109.004C108.905 22.3345 110.471 25 114.969 25C118.268 25 121 23.223 121 19.7678C121 16.9049 119.634 15.5885 117.135 14.7002C116.661 14.5227 116.195 14.4006 115.733 14.2795ZM144.011 16.1445C144.011 19.8419 141.613 22.4498 138.066 22.4498C134.65 22.4498 132.153 19.8419 132.153 16.1445C132.153 12.48 134.551 9.80609 138.066 9.80609C141.547 9.80609 144.011 12.48 144.011 16.1445ZM147 7.29723H143.978V9.67405C142.828 8.12247 140.661 7 137.934 7C132.777 7 129 10.9617 129 16.1445C129 21.5916 132.712 25.2559 138 25.2559C141.153 25.2559 143.091 23.6714 143.879 22.4498V22.945C143.879 26.7414 141.12 28.26 137.836 28.26C135.241 28.26 133.303 27.3688 132.153 26.6094L130.938 29.0854C132.35 30.0097 134.781 31 137.803 31C142.96 31 147 28.5902 147 21.9546V7.29723ZM160.024 13.5878C160.024 11.1922 159.084 9.82812 157.047 9.82812C155.042 9.82812 153.977 11.3253 153.977 13.6877V25H151V7.19971H153.977V8.79669C154.478 8.09789 155.637 7 157.768 7C161.59 7 163 9.82812 163 13.255V25H160.024V13.5878Z" fill="#14161B"/>
</svg>
