<svg width="115" height="30" viewBox="0 0 115 30" fill="none" xmlns="http://www.w3.org/2000/svg">
<path fill-rule="evenodd" clip-rule="evenodd" d="M25.8022 7.63087C25.4747 7.63087 25.1519 7.48286 24.9396 7.20108C22.5248 3.99566 18.8345 2.15742 14.815 2.15742C13.6614 2.15742 12.5228 2.31297 11.4206 2.6207C11.1582 3.25276 10.5351 3.69732 9.8082 3.69732C8.84427 3.69732 8.063 2.91585 8.063 1.95199C8.063 0.988137 8.84427 0.206668 9.8082 0.206668C10.1937 0.206668 10.55 0.331684 10.8388 0.543384C12.1303 0.182655 13.4643 0 14.815 0C19.5181 0 23.8363 2.15167 26.6628 5.90338C27.0209 6.37891 26.9261 7.05523 26.45 7.41396C26.2557 7.56024 26.0282 7.63087 25.8022 7.63087ZM5.00918 25.9342C1.82417 23.121 0 19.0749 0 14.8173C0 12.8258 0.397682 10.8791 1.1824 9.03141C1.41526 8.48425 2.04609 8.22664 2.59694 8.46052C3.14521 8.69325 3.40065 9.32685 3.16794 9.87516C2.49742 11.4544 2.15726 13.1171 2.15726 14.8173C2.15726 18.4217 3.68663 21.8482 6.36004 24.249C6.4867 24.2198 6.61863 24.2043 6.75417 24.2043C7.7181 24.2043 8.49937 24.9858 8.49937 25.9496C8.49937 26.9135 7.7181 27.695 6.75417 27.695C5.79038 27.695 5.00911 26.9135 5.00911 25.9496L5.00918 25.9342ZM15.9101 28.5668C15.9942 29.0981 16.4529 29.4768 16.9739 29.4768C17.0302 29.4768 17.0872 29.4727 17.144 29.4637C23.4083 28.4713 28.3074 23.6568 29.4177 17.4394C29.9523 17.1411 30.3139 16.5699 30.3139 15.9143C30.3139 14.9503 29.5325 14.1689 28.5687 14.1689C27.6049 14.1689 26.8235 14.9503 26.8235 15.9143C26.8235 16.3718 26.9995 16.7882 27.2876 17.0994C26.3247 22.3918 22.1461 26.4872 16.8069 27.3328C16.2186 27.4258 15.8168 27.9785 15.9101 28.5668ZM17.939 15.0976L17.9256 15.0924C17.8113 16.5951 16.5657 17.7868 15.0341 17.7868C13.4277 17.7868 12.1207 16.4797 12.1207 14.8733C12.1207 14.1629 12.3864 13.5197 12.8104 13.0135L9.35667 9.31832C7.95306 10.7528 7.08391 12.7125 7.08391 14.8733C7.08391 19.2572 10.6504 22.8239 15.0341 22.8239C19.4181 22.8239 22.9844 19.2572 22.9844 14.8733C22.9844 14.5426 22.9578 14.2186 22.9184 13.8984L17.939 15.0976ZM15.0341 14.8734L9.65176 9.03892C11.0695 7.72985 12.9571 6.92264 15.0343 6.92264C18.797 6.92264 21.9506 9.55342 22.7704 13.0704L15.0341 14.8734ZM43.5722 13.4229C43.5722 15.6185 42.3117 16.8786 40.7845 16.8786C39.0084 16.8786 38.0543 15.1601 38.0543 13.4416C38.0543 10.9788 39.3907 9.96666 40.8418 9.96666C42.445 9.96666 43.5722 11.3222 43.5722 13.4229ZM37.9585 8.5728H36.2593V22.0534H38.1115V17.7188C38.1115 17.2225 38.073 16.8787 38.073 16.8787H38.1115C38.1115 16.8787 38.9512 18.4638 41.0711 18.4638C43.5911 18.4638 45.4433 16.478 45.4433 13.4037C45.4433 10.406 43.8015 8.34366 41.2044 8.34366C38.7793 8.34366 37.9585 10.1002 37.9585 10.1002H37.92C37.92 10.1002 37.9585 9.77557 37.9585 9.39382V8.5728ZM54.1715 12.2769C54.1143 10.6157 53.0829 9.81393 51.8422 9.81393C50.4296 9.81393 49.2838 10.6922 49.016 12.2769H54.1715ZM51.8798 8.34348C54.6102 8.34348 56.0613 10.3677 56.0613 12.869C56.0613 13.117 56.0039 13.6708 56.0039 13.6708H48.9588C49.0546 15.7902 50.5631 16.8597 52.2808 16.8597C53.9423 16.8597 55.1456 15.733 55.1456 15.733L55.9091 17.0889C55.9091 17.0889 54.4768 18.4636 52.1663 18.4636C49.1307 18.4636 47.0492 16.2675 47.0492 13.4035C47.0492 10.3292 49.1307 8.34348 51.8798 8.34348ZM57.4581 10.196H58.7186V14.7023C58.7186 17.9293 61.1812 18.311 62.422 18.311C62.8043 18.311 63.0721 18.2724 63.0721 18.2724V16.6305C63.0721 16.6305 62.9001 16.6687 62.6324 16.6687C61.9261 16.6687 60.5708 16.4207 60.5708 14.4918V10.196H62.9001V8.70668H60.5708V5.91882H58.7759V8.70668H57.4581V10.196ZM65.1543 8.57271H66.9491V10.2532C66.9491 10.6537 66.9107 10.9788 66.9107 10.9788H66.9491C67.3878 9.56547 68.5148 8.45807 70.0036 8.45807C70.2525 8.45807 70.4806 8.49619 70.4806 8.49619V10.3291C70.4806 10.3291 70.2328 10.2719 69.9462 10.2719C68.7629 10.2719 67.6743 11.1122 67.2357 12.5441C67.0637 13.0977 67.0065 13.69 67.0065 14.2818V18.2343H65.1543V8.57271ZM74.1683 18.2344H72.3161V8.57279H74.1683V18.2344ZM74.1683 6.64441H72.2974V4.7541H74.1683V6.64441ZM81.5582 8.34366C83.9833 8.34366 85.1857 9.75687 85.1857 9.75687L84.3073 11.055C84.3073 11.055 83.2771 9.94745 81.6343 9.94745C79.6873 9.94745 78.2748 11.3988 78.2748 13.3844C78.2748 15.3513 79.6873 16.8598 81.6917 16.8598C83.4865 16.8598 84.6709 15.5613 84.6709 15.5613L85.4147 16.9171C85.4147 16.9171 84.0782 18.4636 81.5582 18.4636C78.5228 18.4636 76.3839 16.3061 76.3839 13.4037C76.3839 10.5398 78.5228 8.34366 81.5582 8.34366ZM95.3464 13.3843C95.3464 15.4085 93.8577 16.8597 92.0243 16.8597C90.2108 16.8597 88.7022 15.4085 88.7022 13.3843C88.7022 11.3793 90.2108 9.94728 92.0243 9.94728C93.8577 9.94728 95.3464 11.3793 95.3464 13.3843ZM97.2372 13.3844C97.2372 10.4631 94.908 8.34366 92.0244 8.34366C89.142 8.34366 86.8127 10.4631 86.8127 13.3844C86.8127 16.3249 89.142 18.4636 92.0244 18.4636C94.908 18.4636 97.2372 16.3249 97.2372 13.3844ZM99.4361 8.57271H101.231V10.2532C101.231 10.6537 101.192 10.9788 101.192 10.9788H101.231C101.669 9.56547 102.797 8.45807 104.285 8.45807C104.534 8.45807 104.762 8.49619 104.762 8.49619V10.3291C104.762 10.3291 104.515 10.2719 104.228 10.2719C103.045 10.2719 101.956 11.1122 101.517 12.5441C101.345 13.0977 101.288 13.69 101.288 14.2818V18.2343H99.4361V8.57271ZM110.665 9.81393C111.905 9.81393 112.937 10.6157 112.994 12.2769H107.838C108.106 10.6922 109.252 9.81393 110.665 9.81393ZM114.884 12.869C114.884 10.3677 113.433 8.34348 110.702 8.34348C107.953 8.34348 105.872 10.3292 105.872 13.4035C105.872 16.2675 107.953 18.4636 110.989 18.4636C113.299 18.4636 114.731 17.0889 114.731 17.0889L113.968 15.733C113.968 15.733 112.765 16.8597 111.103 16.8597C109.385 16.8597 107.877 15.7902 107.781 13.6708H114.826C114.826 13.6708 114.884 13.117 114.884 12.869Z" fill="#14161B"/>
</svg>
