<svg width="137" height="22" viewBox="0 0 137 22" fill="none" xmlns="http://www.w3.org/2000/svg">
<path fill-rule="evenodd" clip-rule="evenodd" d="M14.7244 0.771961V4.88991C12.6106 4.08453 10.7316 3.67732 9.08454 3.67732C8.10591 3.67732 7.3321 3.85966 6.7479 4.21219C6.16378 4.56776 5.86566 5.00542 5.86566 5.52206C5.86566 6.20889 6.53413 6.81971 7.86204 7.3668L11.6982 9.25103C14.7876 10.7432 16.3293 12.7247 16.3293 15.2137C16.3293 17.2833 15.5103 18.9336 13.8753 20.1553C12.2282 21.3892 10.0391 22 7.28996 22C6.02526 22 4.88704 21.9453 3.87831 21.8298C2.86959 21.7204 1.72234 21.4955 0.427611 21.1734V16.864C2.79434 17.6693 4.94129 18.0765 6.86235 18.0765C9.16888 18.0765 10.3161 17.4019 10.3161 16.0404C10.3161 15.3626 9.84939 14.8156 8.90387 14.3871L4.64317 12.5545C3.05928 11.8373 1.89096 10.9681 1.13822 9.93786C0.373363 8.8985 0 7.70717 0 6.34566C0 4.4401 0.788934 2.90536 2.36974 1.73834C3.94159 0.580436 6.04632 0 8.66001 0C9.51817 0 10.4848 0.0759456 11.5808 0.215756C12.6648 0.36468 13.7157 0.54702 14.7244 0.771961ZM135.398 0.771961V4.88991C133.284 4.08453 131.402 3.67732 129.755 3.67732C128.78 3.67732 128.003 3.85966 127.419 4.21219C126.834 4.56776 126.536 5.00542 126.536 5.52206C126.536 6.20889 127.196 6.81971 128.524 7.3668L132.36 9.25103C135.461 10.7432 137 12.7247 137 15.2137C137 17.2833 136.184 18.9336 134.537 20.1553C132.902 21.3892 130.701 22 127.961 22C126.696 22 125.561 21.9453 124.552 21.8298C123.543 21.7204 122.384 21.4955 121.098 21.1734V16.864C123.456 17.6693 125.603 18.0765 127.536 18.0765C129.843 18.0765 130.99 17.4019 130.99 16.0404C130.99 15.3626 130.52 14.8156 129.566 14.3871L125.305 12.5545C123.733 11.8373 122.565 10.9681 121.8 9.93786C121.047 8.8985 120.665 7.70717 120.665 6.34566C120.665 4.4401 121.46 2.90536 123.031 1.73834C124.615 0.580436 126.717 0 129.331 0C130.18 0 131.158 0.0759456 132.242 0.215756C133.335 0.36468 134.386 0.54702 135.398 0.771961ZM25.3687 0.385945H19.1206V21.6141H25.3687V0.385945ZM45.4981 0.385945V4.30947H36.2147V9.01697H44.2665V12.5545H36.2147V17.4961H45.6878V21.6141H30.2016V0.385945H45.4981ZM74.6667 21.6141V0.385945H67.4221L61.9749 13.3811L56.7687 0.385945H49.1415V21.6141H53.3601V7.61293L59.1806 21.8085H62.7819L68.8339 7.61293V21.6141H74.6667ZM94.7873 0.385945V4.30947H85.5547V9.01697H93.6065V12.5545H85.5547V17.4961H94.977V21.6141H79.4909V0.385945H94.7873ZM116.711 21.6141V0.385945H112.496V13.7671L105.251 0.385945H98.4306V21.6141H102.647V7.99888L110.084 21.6141H116.711Z" fill="#14161B"/>
</svg>
