<svg width="165" height="31" viewBox="0 0 165 31" fill="none" xmlns="http://www.w3.org/2000/svg">
<path fill-rule="evenodd" clip-rule="evenodd" d="M22.7333 31C27.2989 31 31 27.299 31 22.7333V8.26667C31 3.70101 27.2989 0 22.7333 0H8.26667C3.70114 0 0 3.70101 0 8.26667V22.7333C0 27.299 3.70114 31 8.26667 31H22.7333ZM12.3996 10.85C12.3996 12.5621 13.7875 13.95 15.4996 13.95C17.2117 13.95 18.5996 12.5621 18.5996 10.85C18.5996 9.1379 17.2117 7.75 15.4996 7.75C13.7875 7.75 12.3996 9.1379 12.3996 10.85ZM21.7 17.05C21.7 17.9064 21.3525 18.6814 20.792 19.242C20.3587 19.6742 19.7987 19.9798 19.173 20.097C18.8541 20.1567 18.6067 20.4041 18.547 20.7231C18.2781 22.1609 17.0156 23.25 15.5 23.25C14.6436 23.25 13.8686 22.9025 13.308 22.342C12.8747 21.9096 12.5697 21.3498 12.4528 20.7235C12.3933 20.4043 12.1457 20.1567 11.8265 20.0972C10.388 19.8284 9.3 18.5668 9.3 17.05C9.3 16.1936 9.64617 15.4186 10.208 14.858C10.5507 14.5154 10.9731 14.2521 11.4456 14.0996C11.7751 13.9933 12.1369 14.079 12.3964 14.3084L12.4 14.3117C13.2228 15.0505 14.3104 15.5 15.5 15.5C16.6896 15.5 17.7772 15.0505 18.6 14.3117L18.6036 14.3084C18.8665 14.0762 19.2333 13.9948 19.5666 14.1041C20.8055 14.5103 21.7 15.6755 21.7 17.05ZM54.2544 8.91206L54.0059 11.4871C53.2387 11.0365 51.337 10.5537 49.7594 10.5537C48.1709 10.5537 47.0364 11.0365 47.0364 12.2383C47.0364 13.3679 47.937 13.6314 48.8728 13.9051C48.9413 13.9251 49.01 13.9452 49.0786 13.9657L51.1965 14.5881C53.6169 15.2962 55 16.3263 55 18.5579C55 21.1438 52.7849 23 49.4352 23C47.3605 23 45.0157 22.485 44 21.9271L44.2378 19.3412C44.9617 19.7919 47.3497 20.425 49.1758 20.425C50.7211 20.425 51.9528 19.8884 51.9528 18.6974C51.9528 17.7747 51.4018 17.367 50.1591 17.0344L47.8359 16.4121C45.9666 15.9077 44 14.8991 44 12.4742C44 9.78122 46.1287 8 49.554 8C51.6071 8 53.0875 8.39697 54.2544 8.91206ZM79.1933 23H81.8069V12.8306H79.1933V23ZM79 9.56783C79 8.64619 79.6102 8 80.495 8C81.3796 8 82 8.6356 82 9.56783C82 10.4895 81.3796 11.1251 80.495 11.1251C79.6102 11.1251 79 10.4895 79 9.56783ZM89.468 14.519C87.8265 14.519 86.718 15.795 86.718 17.4779C86.718 19.172 87.8265 20.492 89.468 20.492C91.0989 20.492 92.2607 19.172 92.2607 17.4779C92.2607 15.795 91.0989 14.519 89.468 14.519ZM84 17.4779C84 14.2769 86.1211 12 88.935 12C90.5233 12 91.5998 12.627 92.2713 13.496L92.3246 12.2199H95V22.7799H92.3246L92.2713 21.504C91.5998 22.384 90.5233 23 88.935 23C86.1211 23 84 20.6791 84 17.4779ZM100 23H97V8H100V23ZM115 23H112.088V17.0618H104.923V23H102V9H104.923V14.6598H112.088V9H115V23ZM122.2 14.376C123.575 14.376 124.419 15.2781 124.492 16.455H119.699C119.813 15.2561 120.772 14.376 122.2 14.376ZM122.814 23C124.273 23 125.617 22.5929 126.587 22.01L126.211 19.7219C125.222 20.217 124.065 20.525 122.825 20.525C121.178 20.525 119.928 19.821 119.657 18.3469H126.889C127.545 14.442 125.211 12 122.137 12C119.167 12 117 14.2661 117 17.5C117 20.7889 119.272 23 122.814 23ZM133.468 14.519C131.827 14.519 130.718 15.795 130.718 17.4779C130.718 19.172 131.827 20.492 133.468 20.492C135.099 20.492 136.261 19.172 136.261 17.4779C136.261 15.795 135.099 14.519 133.468 14.519ZM128 17.4779C128 14.2769 130.121 12 132.935 12C134.523 12 135.6 12.627 136.271 13.496L136.325 12.2199H139V22.7799H136.325L136.271 21.504C135.6 22.384 134.523 23 132.935 23C130.121 23 128 20.6791 128 17.4779ZM145 23H142V8H145V23ZM150.477 14.663V18.9565C150.477 20.0434 151.076 20.5217 151.997 20.5217C152.511 20.5217 153.165 20.4348 153.743 20.2717L154 22.587C153.368 22.837 152.351 23 151.515 23C149.256 23 147.735 21.8153 147.735 19.3587V14.663H146V12.3478H147.746V9H150.412V12.3478H153.39V14.663H150.477ZM165 23V16.576C165 14.1151 163.297 12.5596 160.911 12.5596C159.414 12.5596 158.33 13.2095 157.787 13.8594V8H155V23H157.787V17.2791C157.787 15.8622 158.872 15.0952 160.087 15.0952C161.291 15.0952 162.213 15.8622 162.213 17.2791V23H165ZM64.2661 17.5001C64.2661 19.194 63.1189 20.448 61.5 20.448C59.8918 20.448 58.7339 19.194 58.7339 17.5001C58.7339 15.817 59.8918 14.563 61.5 14.563C63.1189 14.563 64.2661 15.817 64.2661 17.5001ZM67 17.5001C67 14.387 64.6627 12 61.5 12C58.348 12 56 14.387 56 17.5001C56 20.624 58.348 23 61.5 23C64.6627 23 67 20.624 67 17.5001ZM73.6831 12C74.9296 12 76.007 12.297 76.8732 12.704L76.6409 15.157C75.912 14.827 74.9824 14.585 73.9789 14.585C72.1302 14.585 70.7148 15.575 70.7148 17.4781C70.7148 19.2821 72.0563 20.404 73.8944 20.404C74.919 20.404 75.8063 20.14 76.6831 19.711L77 22.219C75.9331 22.714 74.9507 23 73.7148 23C70.3767 23 68 20.756 68 17.4891C68 14.057 70.4084 12 73.6831 12Z" fill="#14161B"/>
</svg>
