<svg width="122" height="38" viewBox="0 0 122 38" fill="none" xmlns="http://www.w3.org/2000/svg">
<path d="M47.9331 7.74731V25.9163L50.5882 25.9342V17.278H56.9928V14.9935H50.5882V10.0318H58.9183V7.74731H47.9331ZM63.7015 11.4418C64.6541 11.4418 65.4445 10.7636 65.4445 9.90689C65.4445 9.0502 64.6743 8.37199 63.7015 8.37199C62.7489 8.37199 61.9584 9.0502 61.9584 9.90689C61.9584 10.7636 62.7286 11.4418 63.7015 11.4418ZM62.3435 13.7263V25.9342H64.9986V13.7263H62.3435ZM74.8488 13.3694C71.3222 13.3694 68.8698 15.993 68.8698 19.1163C68.8698 22.2397 71.3222 24.8633 74.8488 24.8633C76.4702 24.8633 77.7876 24.3279 78.7605 23.4176V25.0418C78.7807 27.0586 76.9566 28.7363 74.6461 28.7541C74.6258 28.7541 74.6258 28.7541 74.6056 28.7541C73.7543 28.7541 72.9233 28.4686 72.2545 28.0581L70.9168 30.0927C74.0786 31.8953 78.2943 31.0922 80.3211 28.3079C81.0304 27.3263 81.4155 26.2019 81.4155 25.0418V13.7442H78.7605V14.8329C77.7876 13.9226 76.4702 13.3694 74.8488 13.3694ZM71.5248 19.1163C71.5248 17.1709 73.2071 15.6539 75.1528 15.6539C77.0985 15.6539 78.7605 17.1888 78.7605 19.1163C78.7605 21.0617 77.0782 22.561 75.1528 22.561C73.2071 22.561 71.5248 21.0439 71.5248 19.1163ZM90.9819 15.6539C89.4011 15.6717 88.1242 16.814 88.1445 18.2061V25.9163H85.4894V13.7085H88.1445V14.8329C88.9552 13.8869 90.2118 13.3515 91.5697 13.3694C93.4344 13.3694 94.8734 14.1725 95.6841 15.4219C96.6164 14.1547 98.1973 13.3872 99.8998 13.3694C102.92 13.3694 104.805 15.5111 104.805 18.1704V25.9163H102.17V18.2061C102.17 16.814 100.913 15.6717 99.3323 15.6539C97.7514 15.6717 96.4745 16.814 96.4948 18.2061V25.9163H93.8194V18.2061C93.8194 16.814 92.5628 15.6717 90.9819 15.6539ZM118.952 15.1006C117.735 13.9762 116.033 13.3515 114.27 13.3694C110.317 13.3694 107.52 16.3142 107.52 19.8124C107.52 23.3284 110.317 26.2554 114.27 26.2554C116.033 26.2554 117.715 25.6308 118.952 24.5242V25.9163H121.607V13.7085H118.952V15.1006ZM110.176 19.8124C110.176 17.4922 112.202 15.636 114.574 15.636C116.925 15.6539 118.952 17.4922 118.952 19.8124C118.952 22.1326 116.925 23.9709 114.553 23.9709C112.223 23.9888 110.176 22.1505 110.176 19.8124Z" fill="#14161B"/>
<path d="M14.6057 19.0091C14.6057 15.6894 17.6661 12.9944 21.4359 12.9944C25.2057 12.9944 28.2662 15.6894 28.2662 19.0091C28.2662 22.3288 25.2057 25.0238 21.4359 25.0238C17.6661 25.0238 14.6057 22.3288 14.6057 19.0091Z" fill="#14161B"/>
<path d="M0 31.9851C0 28.6655 3.06044 25.9705 6.83025 25.9705H13.6605V31.9851C13.6605 35.3048 10.6001 37.9998 6.83025 37.9998C3.06044 37.9998 0 35.3048 0 31.9851Z" fill="#14161B"/>
<path d="M14.6057 0.0178489V12.0294H21.4359C25.2057 12.0294 28.2662 9.33441 28.2662 6.01472C28.2662 2.69502 25.2057 0 21.4359 0H14.6057V0.0178489Z" fill="#14161B"/>
<path d="M0 6.03431C0 9.354 3.06044 12.049 6.83025 12.049H13.6605V0.0374417H6.83025C3.06044 0.0195938 0 2.71461 0 6.03431Z" fill="#14161B"/>
<path d="M0 19.0086C0 22.3283 3.06044 25.0233 6.83025 25.0233H13.6605V13.0118H6.83025C3.06044 12.994 0 15.689 0 19.0086Z" fill="#14161B"/>
</svg>
