<svg width="38" height="54" viewBox="0 0 38 54" fill="none" xmlns="http://www.w3.org/2000/svg">
<path d="M3.45453 0H5.87119V2.27707H8.09873V0H10.5154V6.89114H8.09873V4.5941H5.89221V6.89114H3.45453V0ZM13.7096 2.29705H11.5766V0H18.2697V2.29705H16.1263V6.89114H13.7096V2.29705ZM19.331 0H21.8632L23.4183 2.42688L24.9733 0H27.5056V6.89114H25.0889V3.47553L23.3973 5.95235L21.7056 3.47553V6.89114H19.331V0ZM28.7034 0H31.1201V4.61407H34.5454V6.89114H28.7034" fill="#14161B"/>
<path fill-rule="evenodd" clip-rule="evenodd" d="M3.45645 49.1235L0 10.4282H38L34.5436 49.1026L18.9686 53.4067L3.45645 49.1235ZM7.05914 18.3363H18.9778H18.9996H30.8973L30.4574 23.0792L18.9996 23.0792L18.9778 23.0792L12.2752 23.0792L12.7152 27.937H18.9996L30.028 27.937L28.7187 42.4999L18.9996 45.1892V45.2161L9.23775 42.4999L8.56741 35.0513H13.3436L13.6788 38.8435L18.9887 40.2614L24.2882 38.8435L24.8433 32.6798H18.9778V32.6694H8.35793L7.05914 18.3363Z" fill="#14161B"/>
</svg>
