<svg width="156" height="54" viewBox="0 0 156 54" fill="none" xmlns="http://www.w3.org/2000/svg">
<path d="M10.692 39.504C7.98 39.504 5.712 38.592 3.888 36.768C2.088 34.944 1.188 32.688 1.188 30C1.188 27.312 2.088 25.056 3.888 23.232C5.712 21.408 7.98 20.496 10.692 20.496C12.444 20.496 14.04 20.916 15.48 21.756C16.92 22.596 18.012 23.724 18.756 25.14L14.76 27.48C14.4 26.736 13.848 26.148 13.104 25.716C12.384 25.284 11.568 25.068 10.656 25.068C9.264 25.068 8.112 25.536 7.2 26.472C6.288 27.384 5.832 28.56 5.832 30C5.832 31.416 6.288 32.592 7.2 33.528C8.112 34.44 9.264 34.896 10.656 34.896C11.592 34.896 12.42 34.692 13.14 34.284C13.884 33.852 14.436 33.264 14.796 32.52L18.828 34.824C18.036 36.24 16.92 37.38 15.48 38.244C14.04 39.084 12.444 39.504 10.692 39.504ZM36.3389 36.768C34.4909 38.592 32.2349 39.504 29.5709 39.504C26.9069 39.504 24.6509 38.592 22.8029 36.768C20.9789 34.92 20.0669 32.664 20.0669 30C20.0669 27.336 20.9789 25.092 22.8029 23.268C24.6509 21.42 26.9069 20.496 29.5709 20.496C32.2349 20.496 34.4909 21.42 36.3389 23.268C38.1869 25.092 39.1109 27.336 39.1109 30C39.1109 32.664 38.1869 34.92 36.3389 36.768ZM26.0789 33.564C27.0149 34.5 28.1789 34.968 29.5709 34.968C30.9629 34.968 32.1269 34.5 33.0629 33.564C33.9989 32.628 34.4669 31.44 34.4669 30C34.4669 28.56 33.9989 27.372 33.0629 26.436C32.1269 25.5 30.9629 25.032 29.5709 25.032C28.1789 25.032 27.0149 25.5 26.0789 26.436C25.1669 27.372 24.7109 28.56 24.7109 30C24.7109 31.44 25.1669 32.628 26.0789 33.564ZM62.2859 20.496C64.3499 20.496 65.9939 21.168 67.2179 22.512C68.4659 23.856 69.0899 25.656 69.0899 27.912V39H64.4459V28.236C64.4459 27.156 64.1819 26.316 63.6539 25.716C63.1259 25.116 62.3819 24.816 61.4219 24.816C60.3659 24.816 59.5379 25.164 58.9379 25.86C58.3619 26.556 58.0739 27.564 58.0739 28.884V39H53.4299V28.236C53.4299 27.156 53.1659 26.316 52.6379 25.716C52.1099 25.116 51.3659 24.816 50.4059 24.816C49.3739 24.816 48.5459 25.164 47.9219 25.86C47.3219 26.556 47.0219 27.564 47.0219 28.884V39H42.3779V21H47.0219V22.908C48.1019 21.3 49.7699 20.496 52.0259 20.496C54.2339 20.496 55.8659 21.36 56.9219 23.088C58.1219 21.36 59.9099 20.496 62.2859 20.496ZM83.5102 20.496C85.9342 20.496 87.9982 21.42 89.7022 23.268C91.4302 25.092 92.2942 27.336 92.2942 30C92.2942 32.664 91.4302 34.92 89.7022 36.768C87.9982 38.592 85.9342 39.504 83.5102 39.504C80.9902 39.504 79.0462 38.628 77.6782 36.876V46.2H73.0342V21H77.6782V23.124C79.0462 21.372 80.9902 20.496 83.5102 20.496ZM79.0822 33.672C80.0182 34.608 81.2062 35.076 82.6462 35.076C84.0862 35.076 85.2742 34.608 86.2102 33.672C87.1702 32.712 87.6502 31.488 87.6502 30C87.6502 28.512 87.1702 27.3 86.2102 26.364C85.2742 25.404 84.0862 24.924 82.6462 24.924C81.2062 24.924 80.0182 25.404 79.0822 26.364C78.1462 27.3 77.6782 28.512 77.6782 30C77.6782 31.488 78.1462 32.712 79.0822 33.672ZM109.249 21H113.893V39H109.249V36.876C107.857 38.628 105.901 39.504 103.381 39.504C100.981 39.504 98.9173 38.592 97.1893 36.768C95.4853 34.92 94.6333 32.664 94.6333 30C94.6333 27.336 95.4853 25.092 97.1893 23.268C98.9173 21.42 100.981 20.496 103.381 20.496C105.901 20.496 107.857 21.372 109.249 23.124V21ZM100.681 33.672C101.617 34.608 102.805 35.076 104.245 35.076C105.685 35.076 106.873 34.608 107.809 33.672C108.769 32.712 109.249 31.488 109.249 30C109.249 28.512 108.769 27.3 107.809 26.364C106.873 25.404 105.685 24.924 104.245 24.924C102.805 24.924 101.617 25.404 100.681 26.364C99.7453 27.3 99.2773 28.512 99.2773 30C99.2773 31.488 99.7453 32.712 100.681 33.672ZM128.112 20.496C130.08 20.496 131.7 21.156 132.972 22.476C134.268 23.796 134.916 25.62 134.916 27.948V39H130.272V28.524C130.272 27.324 129.948 26.412 129.3 25.788C128.652 25.14 127.788 24.816 126.708 24.816C125.508 24.816 124.548 25.188 123.828 25.932C123.108 26.676 122.748 27.792 122.748 29.28V39H118.104V21H122.748V23.016C123.876 21.336 125.664 20.496 128.112 20.496ZM150.231 21H155.199L148.647 39C147.711 41.592 146.463 43.464 144.903 44.616C143.367 45.792 141.447 46.32 139.143 46.2V41.88C140.391 41.904 141.375 41.64 142.095 41.088C142.839 40.536 143.427 39.648 143.859 38.424L136.479 21H141.555L146.235 33.096L150.231 21Z" fill="#14161B"/>
</svg>
