<svg width="156" height="53" viewBox="0 0 156 53" fill="none" xmlns="http://www.w3.org/2000/svg">
<path d="M12.0374 39.532C9.40269 39.532 7.18602 38.9493 5.38735 37.784C3.58869 36.5933 2.32202 34.9847 1.58735 32.958L6.07135 30.336C7.11002 33.0467 9.14935 34.402 12.1894 34.402C13.6587 34.402 14.7354 34.136 15.4194 33.604C16.1034 33.072 16.4454 32.4007 16.4454 31.59C16.4454 30.6527 16.0274 29.9307 15.1914 29.424C14.3554 28.892 12.8607 28.322 10.7074 27.714C9.51669 27.3593 8.50335 27.0047 7.66735 26.65C6.85669 26.2953 6.03335 25.8267 5.19735 25.244C4.38669 24.636 3.76602 23.876 3.33535 22.964C2.90468 22.052 2.68935 20.988 2.68935 19.772C2.68935 17.3653 3.53802 15.4527 5.23535 14.034C6.95802 12.59 9.02269 11.868 11.4294 11.868C13.5827 11.868 15.47 12.4 17.0914 13.464C18.738 14.5027 20.0174 15.9593 20.9294 17.834L16.5214 20.38C15.4574 18.1 13.76 16.96 11.4294 16.96C10.34 16.96 9.47869 17.2133 8.84535 17.72C8.23735 18.2013 7.93335 18.8347 7.93335 19.62C7.93335 20.456 8.27535 21.14 8.95935 21.672C9.66869 22.1787 11.0114 22.736 12.9874 23.344C13.798 23.5973 14.406 23.8 14.8114 23.952C15.242 24.0787 15.812 24.294 16.5214 24.598C17.256 24.8767 17.8134 25.1427 18.1934 25.396C18.5987 25.6493 19.0547 25.9913 19.5614 26.422C20.068 26.8527 20.448 27.296 20.7014 27.752C20.98 28.208 21.208 28.7653 21.3854 29.424C21.588 30.0573 21.6894 30.754 21.6894 31.514C21.6894 33.9713 20.79 35.922 18.9914 37.366C17.218 38.81 14.9 39.532 12.0374 39.532ZM34.6681 33.984H45.8781V39H29.4241V12.4H45.6881V17.416H34.6681V23.078H44.7381V28.018H34.6681V33.984ZM76.2709 35.542C73.5856 38.202 70.3176 39.532 66.4669 39.532C62.6163 39.532 59.3483 38.202 56.6629 35.542C54.0029 32.8567 52.6729 29.576 52.6729 25.7C52.6729 21.824 54.0029 18.556 56.6629 15.896C59.3483 13.2107 62.6163 11.868 66.4669 11.868C70.3176 11.868 73.5856 13.2107 76.2709 15.896C78.9563 18.556 80.2989 21.824 80.2989 25.7C80.2989 29.576 78.9563 32.8567 76.2709 35.542ZM60.3489 31.97C61.9956 33.5913 64.0349 34.402 66.4669 34.402C68.8989 34.402 70.9383 33.5913 72.5849 31.97C74.2316 30.3233 75.0549 28.2333 75.0549 25.7C75.0549 23.1667 74.2316 21.0767 72.5849 19.43C70.9383 17.7833 68.8989 16.96 66.4669 16.96C64.0349 16.96 61.9956 17.7833 60.3489 19.43C58.7023 21.0767 57.8789 23.1667 57.8789 25.7C57.8789 28.2333 58.7023 30.3233 60.3489 31.97Z" fill="#14161B"/>
<path d="M101.848 20.908C101 21.748 99.968 22.168 98.752 22.168C97.536 22.168 96.504 21.748 95.656 20.908C94.816 20.06 94.396 19.024 94.396 17.8C94.396 16.576 94.816 15.544 95.656 14.704C96.504 13.856 97.536 13.432 98.752 13.432C99.968 13.432 101 13.856 101.848 14.704C102.696 15.544 103.12 16.576 103.12 17.8C103.12 19.024 102.696 20.06 101.848 20.908ZM96.82 19.78C97.34 20.292 97.984 20.548 98.752 20.548C99.52 20.548 100.164 20.292 100.684 19.78C101.204 19.26 101.464 18.6 101.464 17.8C101.464 17 101.204 16.34 100.684 15.82C100.164 15.3 99.52 15.04 98.752 15.04C97.984 15.04 97.34 15.3 96.82 15.82C96.3 16.34 96.04 17 96.04 17.8C96.04 18.6 96.3 19.26 96.82 19.78ZM111.416 13.6C112.224 13.6 112.904 13.872 113.456 14.416C114.008 14.96 114.284 15.628 114.284 16.42C114.284 17.212 114.008 17.88 113.456 18.424C112.904 18.968 112.224 19.24 111.416 19.24H109.94V22H108.284V13.6H111.416ZM111.416 17.692C111.768 17.692 112.06 17.572 112.292 17.332C112.524 17.084 112.64 16.78 112.64 16.42C112.64 16.052 112.524 15.748 112.292 15.508C112.06 15.268 111.768 15.148 111.416 15.148H109.94V17.692H111.416ZM124.766 13.6V15.184H122.498V22H120.842V15.184H118.586V13.6H124.766ZM129.69 13.6H131.346V22H129.69V13.6ZM145.121 13.6V22H143.477V16.552L141.113 20.452H140.921L138.557 16.564V22H136.901V13.6H138.605L141.017 17.572L143.417 13.6H145.121ZM150.686 13.6H152.342V22H150.686V13.6ZM96.544 35.416H100.108V37H94.432V35.68L97.924 30.184H94.516V28.6H100.036V29.908L96.544 35.416ZM110.649 37L110.145 35.488H106.797L106.293 37H104.505L107.445 28.6H109.497L112.449 37H110.649ZM107.325 33.94H109.629L108.477 30.508L107.325 33.94ZM122.211 28.6V30.184H119.943V37H118.287V30.184H116.031V28.6H122.211ZM127.135 28.6H128.791V37H127.135V28.6ZM141.414 35.908C140.566 36.748 139.534 37.168 138.318 37.168C137.102 37.168 136.07 36.748 135.222 35.908C134.382 35.06 133.962 34.024 133.962 32.8C133.962 31.576 134.382 30.544 135.222 29.704C136.07 28.856 137.102 28.432 138.318 28.432C139.534 28.432 140.566 28.856 141.414 29.704C142.262 30.544 142.686 31.576 142.686 32.8C142.686 34.024 142.262 35.06 141.414 35.908ZM136.386 34.78C136.906 35.292 137.55 35.548 138.318 35.548C139.086 35.548 139.73 35.292 140.25 34.78C140.77 34.26 141.03 33.6 141.03 32.8C141.03 32 140.77 31.34 140.25 30.82C139.73 30.3 139.086 30.04 138.318 30.04C137.55 30.04 136.906 30.3 136.386 30.82C135.866 31.34 135.606 32 135.606 32.8C135.606 33.6 135.866 34.26 136.386 34.78ZM152.71 28.6H154.366V37H153.106L149.506 31.864V37H147.85V28.6H149.11L152.71 33.724V28.6Z" fill="#14161B"/>
</svg>
