<svg width="166" height="37" viewBox="0 0 166 37" fill="none" xmlns="http://www.w3.org/2000/svg">
<path fill-rule="evenodd" clip-rule="evenodd" d="M50.3579 17.3896C51.4526 20.4002 52 23.4107 52 26.6949C52 29.9791 51.4526 32.9896 50.3579 36.0002L41.3263 32.1686C42.1474 30.5265 42.4211 28.6107 42.4211 26.6949C42.4211 24.7791 42.1474 22.8633 41.3263 21.2212L50.3579 17.3896Z" fill="#14161B"/>
<path fill-rule="evenodd" clip-rule="evenodd" d="M36.6737 2.88428C42.4211 5.62112 47.0737 10.2737 49.8105 16.0211L40.779 19.8527V19.3053L46.2527 12.7369L38.8632 16.5685C37.2211 14.6527 35.3053 13.0106 32.8421 11.9159L36.6737 2.88428Z" fill="#14161B"/>
<path fill-rule="evenodd" clip-rule="evenodd" d="M10.6737 21.2212C9.85265 22.8633 9.57897 24.7791 9.57897 26.6949C9.57897 28.6107 9.85265 30.5265 10.6737 32.1686L1.64213 36.0002C0.547392 32.9896 2.28882e-05 29.9791 2.28882e-05 26.6949C2.28882e-05 23.4107 0.547392 20.4002 1.64213 17.3896L10.6737 21.2212Z" fill="#14161B"/>
<path fill-rule="evenodd" clip-rule="evenodd" d="M19.1579 11.9159C15.6 13.558 12.8632 16.2948 11.2211 19.8527L2.18948 16.0211C4.92632 10.2737 9.57895 5.62112 15.3263 2.88428L19.1579 11.9159Z" fill="#14161B"/>
<path fill-rule="evenodd" clip-rule="evenodd" d="M26 0.694824C29.2842 0.694824 32.2947 1.24219 35.3053 2.33693L31.4737 11.3685C29.8316 10.5475 27.9158 10.2738 26 10.2738C24.0842 10.2738 22.1684 10.5475 20.5263 11.3685L16.6947 2.33693C19.7053 1.24219 22.7158 0.694824 26 0.694824Z" fill="#14161B"/>
<path fill-rule="evenodd" clip-rule="evenodd" d="M42.6947 15.4739L36.4 23.137C34.2105 25.6002 32.021 28.0633 30.1053 30.5265C25.7263 36.5476 17.7895 28.8844 25.1789 24.7791L33.9368 20.1265L42.6947 15.4739ZM26 26.6949C27.3684 26.6949 28.1895 27.7897 28.1895 28.8844C28.1895 30.2528 27.3684 31.3476 26 31.3476C24.6316 31.3476 23.8105 30.2528 23.8105 28.8844C23.8105 27.7897 24.6316 26.6949 26 26.6949Z" fill="#14161B"/>
<path d="M70.379 17.013C70.145 17.0477 69.9457 16.9957 69.781 16.857C69.6163 16.7183 69.5383 16.5363 69.547 16.311C69.5383 15.5223 69.508 14.3177 69.456 12.697C69.3953 11.189 69.3433 9.86733 69.3 8.732C69.3 8.48933 69.391 8.264 69.573 8.056C69.755 7.848 69.9717 7.718 70.223 7.666C70.4743 7.614 70.691 7.65733 70.873 7.796C71.055 7.93467 71.146 8.12533 71.146 8.368C71.198 9.33867 71.263 10.9983 71.341 13.347C72.381 11.5963 73.4167 9.89333 74.448 8.238C74.552 8.06467 74.6907 7.93033 74.864 7.835C75.046 7.731 75.228 7.679 75.41 7.679C75.618 7.679 75.7957 7.744 75.943 7.874C76.0903 7.99533 76.164 8.41133 76.164 9.122L76.528 11.735L76.71 13.438C76.8227 13.2213 77.1693 12.489 77.75 11.241C78.3307 9.993 78.8203 9.005 79.219 8.277C79.3403 8.043 79.5223 7.86533 79.765 7.744C80.0163 7.62267 80.2503 7.59667 80.467 7.666C80.6923 7.73533 80.844 7.88267 80.922 8.108C81 8.32467 80.9783 8.55433 80.857 8.797C80.4583 9.51633 80.025 10.3787 79.557 11.384C79.0977 12.3893 78.7987 13.0263 78.66 13.295L77.867 14.842L77.126 16.311C77.0307 16.493 76.8963 16.6447 76.723 16.766C76.5497 16.8873 76.372 16.9567 76.19 16.974C75.9473 17.0347 75.735 17.013 75.553 16.909C75.371 16.805 75.2627 16.6447 75.228 16.428C75.0113 15.18 74.825 13.7977 74.669 12.281C74.643 12.021 74.5997 11.6873 74.539 11.28L71.484 16.428C71.3627 16.6273 71.198 16.7833 70.99 16.896C70.7907 17 70.587 17.039 70.379 17.013ZM86.9708 17.013C85.6881 17.013 83.9418 17 81.7318 16.974C81.5584 16.974 81.4111 16.9263 81.2898 16.831C81.1684 16.727 81.0861 16.6013 81.0428 16.454C80.9734 16.298 80.9604 16.129 81.0038 15.947C81.0731 15.6437 81.3288 14.4217 81.7708 12.281C82.0914 10.721 82.3904 9.49467 82.6678 8.602C82.7024 8.48933 82.7501 8.38533 82.8108 8.29C82.9148 8.11667 83.0491 7.978 83.2138 7.874C83.3871 7.76133 83.5734 7.70067 83.7728 7.692C84.4054 7.68333 85.2591 7.68333 86.3338 7.692C87.4084 7.692 88.2621 7.68767 88.8948 7.679C89.1461 7.679 89.3411 7.76567 89.4798 7.939C89.6184 8.11233 89.6618 8.32467 89.6098 8.576C89.5578 8.81867 89.4278 9.031 89.2198 9.213C89.0204 9.38633 88.7951 9.473 88.5438 9.473C88.0584 9.473 87.3348 9.473 86.3728 9.473C85.4108 9.46433 84.6871 9.46433 84.2018 9.473C84.0631 10.0017 83.9114 10.6257 83.7468 11.345C84.1628 11.3363 85.4454 11.332 87.5948 11.332C87.8461 11.332 88.0411 11.4187 88.1798 11.592C88.3271 11.7653 88.3748 11.9777 88.3228 12.229C88.2708 12.4717 88.1364 12.684 87.9198 12.866C87.7031 13.0393 87.4691 13.126 87.2178 13.126C85.0598 13.126 83.7814 13.1303 83.3828 13.139C83.1921 14.1097 83.0491 14.7943 82.9538 15.193C84.7131 15.2103 86.1821 15.219 87.3608 15.219C87.6121 15.219 87.8028 15.3057 87.9328 15.479C88.0714 15.6523 88.1148 15.8647 88.0628 16.116C88.0108 16.3673 87.8764 16.5797 87.6598 16.753C87.4518 16.9263 87.2221 17.013 86.9708 17.013ZM92.7662 17.052C92.5929 17.052 92.2896 17.0433 91.8562 17.026L90.7902 16.974C90.7642 16.9827 90.7296 16.987 90.6862 16.987C90.5389 16.987 90.4046 16.9523 90.2832 16.883C90.0492 16.753 89.9322 16.5407 89.9322 16.246C89.9322 16.1593 89.9366 16.0943 89.9452 16.051C89.9539 16.025 89.9756 15.9643 90.0102 15.869L90.4912 13.698C90.7252 12.6407 90.9072 11.748 91.0372 11.02C91.1759 10.2833 91.2929 9.55533 91.3882 8.836C91.4229 8.59333 91.5269 8.381 91.7002 8.199C91.8822 8.00833 92.0902 7.89133 92.3242 7.848C92.4542 7.77 92.6102 7.72233 92.7922 7.705L94.3782 7.653C95.6002 7.653 96.5102 7.85667 97.1082 8.264C97.7062 8.66267 98.0052 9.23033 98.0052 9.967C98.0052 10.4177 97.8839 10.8337 97.6412 11.215C97.4072 11.5877 97.1342 11.8303 96.8222 11.943C97.2382 12.1163 97.5329 12.3417 97.7062 12.619C97.8882 12.8963 97.9792 13.2343 97.9792 13.633C97.9792 14.1703 97.8622 14.634 97.6282 15.024C97.3682 15.4487 96.9566 15.8387 96.3932 16.194C95.5439 16.7053 94.5082 16.987 93.2862 17.039C93.1736 17.0477 93.0002 17.052 92.7662 17.052ZM93.5852 15.258C94.0966 15.232 94.4996 15.193 94.7942 15.141C95.0889 15.089 95.3532 14.9937 95.5872 14.855C95.8126 14.7163 95.9599 14.5863 96.0292 14.465C96.1072 14.335 96.1419 14.153 96.1332 13.919C96.1159 13.503 95.7692 13.256 95.0932 13.178C94.7812 13.1433 94.3609 13.1303 93.8322 13.139L92.3762 13.126L91.9472 15.219C92.0252 15.2277 92.0946 15.232 92.1552 15.232C92.2159 15.232 92.2722 15.2363 92.3242 15.245C92.9656 15.2623 93.3859 15.2667 93.5852 15.258ZM94.1962 11.397C94.7596 11.397 95.2406 11.293 95.6392 11.085C95.9859 10.8943 96.1592 10.6603 96.1592 10.383C96.1592 10.1317 95.9946 9.928 95.6652 9.772C95.3446 9.60733 94.8852 9.525 94.2872 9.525C93.8106 9.525 93.4119 9.53367 93.0912 9.551L93.0002 10.097L92.7922 11.306C93.3036 11.3667 93.7716 11.397 94.1962 11.397ZM106.543 17.104C105.52 17.104 104.753 16.8873 104.242 16.454C103.73 16.0207 103.475 15.453 103.475 14.751C103.475 14.2397 103.583 13.8583 103.8 13.607C104.025 13.3557 104.289 13.23 104.593 13.23C104.792 13.23 104.965 13.2907 105.113 13.412C105.26 13.5247 105.334 13.6893 105.334 13.906C105.334 13.9233 105.321 14.088 105.295 14.4L105.269 14.66C105.269 14.8593 105.39 15.0283 105.633 15.167C105.884 15.3057 106.248 15.375 106.725 15.375C107.028 15.375 107.318 15.323 107.596 15.219C107.882 15.115 108.111 14.9763 108.285 14.803C108.458 14.6297 108.545 14.4477 108.545 14.257C108.545 14.101 108.48 13.9537 108.35 13.815C108.228 13.6763 108.012 13.542 107.7 13.412L107.193 13.217C107.045 13.165 106.885 13.1087 106.712 13.048C106.538 12.9787 106.356 12.905 106.166 12.827C104.866 12.2983 104.216 11.5227 104.216 10.5C104.216 9.98867 104.385 9.50767 104.723 9.057C105.061 8.60633 105.507 8.24667 106.062 7.978C106.616 7.70933 107.206 7.575 107.83 7.575C108.748 7.575 109.498 7.796 110.079 8.238C110.659 8.68 110.95 9.29967 110.95 10.097C110.95 10.5217 110.859 10.851 110.677 11.085C110.495 11.3103 110.252 11.423 109.949 11.423C109.68 11.423 109.463 11.3537 109.299 11.215C109.143 11.0763 109.065 10.89 109.065 10.656C109.065 10.4307 109.06 10.2747 109.052 10.188C109.043 10.0927 109.004 10.0017 108.935 9.915C108.813 9.759 108.618 9.62467 108.35 9.512C108.09 9.39067 107.782 9.32567 107.427 9.317C107.002 9.317 106.668 9.40367 106.426 9.577C106.183 9.75033 106.062 9.954 106.062 10.188C106.062 10.4133 106.153 10.591 106.335 10.721C106.525 10.851 106.881 11.0243 107.401 11.241C107.539 11.293 107.643 11.3363 107.713 11.371C108.215 11.5617 108.64 11.7437 108.987 11.917C109.481 12.1597 109.84 12.437 110.066 12.749C110.3 13.061 110.417 13.4597 110.417 13.945C110.417 14.5343 110.222 15.0717 109.832 15.557C109.45 16.0337 108.956 16.4107 108.35 16.688C107.752 16.9653 107.149 17.104 106.543 17.104ZM113.807 16.181C113.755 16.4323 113.62 16.649 113.404 16.831C113.187 17.0043 112.953 17.091 112.702 17.091C112.45 17.091 112.255 17.0043 112.117 16.831C111.978 16.649 111.935 16.4323 111.987 16.181C112.039 15.9297 112.294 14.6687 112.754 12.398C113.222 10.1273 113.499 8.86633 113.586 8.615C113.646 8.36367 113.785 8.15567 114.002 7.991C114.218 7.81767 114.452 7.731 114.704 7.731C114.747 7.731 114.79 7.73533 114.834 7.744C114.851 7.744 114.873 7.73967 114.899 7.731C115.991 7.55767 116.831 7.48833 117.421 7.523C118.591 7.601 119.397 8.01267 119.839 8.758C120.185 9.33 120.294 9.941 120.164 10.591C120.034 11.241 119.717 11.787 119.215 12.229C118.79 12.6017 118.3 12.892 117.746 13.1C117.191 13.308 116.649 13.425 116.121 13.451C115.939 13.4597 115.748 13.4597 115.549 13.451C115.358 13.4423 115.124 13.425 114.847 13.399C114.569 13.373 114.413 13.3557 114.379 13.347C114.119 14.6557 113.928 15.6003 113.807 16.181ZM116.42 11.631C116.74 11.6223 117.057 11.5617 117.369 11.449C117.681 11.3277 117.923 11.1847 118.097 11.02C118.183 10.942 118.244 10.8727 118.279 10.812C118.322 10.7427 118.344 10.617 118.344 10.435C118.344 10.253 118.296 10.0753 118.201 9.902C117.993 9.564 117.568 9.37767 116.927 9.343C116.493 9.317 115.921 9.356 115.211 9.46C115.081 10.0407 114.929 10.7297 114.756 11.527H114.769L115.367 11.592C115.583 11.6093 115.774 11.6223 115.939 11.631C116.103 11.6397 116.264 11.6397 116.42 11.631ZM126.732 17.013C125.449 17.013 123.703 17 121.493 16.974C121.319 16.974 121.172 16.9263 121.051 16.831C120.929 16.727 120.847 16.6013 120.804 16.454C120.734 16.298 120.721 16.129 120.765 15.947C120.834 15.6437 121.09 14.4217 121.532 12.281C121.852 10.721 122.151 9.49467 122.429 8.602C122.463 8.48933 122.511 8.38533 122.572 8.29C122.676 8.11667 122.81 7.978 122.975 7.874C123.148 7.76133 123.334 7.70067 123.534 7.692C124.166 7.68333 125.02 7.68333 126.095 7.692C127.169 7.692 128.023 7.68767 128.656 7.679C128.907 7.679 129.102 7.76567 129.241 7.939C129.379 8.11233 129.423 8.32467 129.371 8.576C129.319 8.81867 129.189 9.031 128.981 9.213C128.781 9.38633 128.556 9.473 128.305 9.473C127.819 9.473 127.096 9.473 126.134 9.473C125.172 9.46433 124.448 9.46433 123.963 9.473C123.824 10.0017 123.672 10.6257 123.508 11.345C123.924 11.3363 125.206 11.332 127.356 11.332C127.607 11.332 127.802 11.4187 127.941 11.592C128.088 11.7653 128.136 11.9777 128.084 12.229C128.032 12.4717 127.897 12.684 127.681 12.866C127.464 13.0393 127.23 13.126 126.979 13.126C124.821 13.126 123.542 13.1303 123.144 13.139C122.953 14.1097 122.81 14.7943 122.715 15.193C124.474 15.2103 125.943 15.219 127.122 15.219C127.373 15.219 127.564 15.3057 127.694 15.479C127.832 15.6523 127.876 15.8647 127.824 16.116C127.772 16.3673 127.637 16.5797 127.421 16.753C127.213 16.9263 126.983 17.013 126.732 17.013ZM135.712 17.013C134.429 17.013 132.683 17 130.473 16.974C130.3 16.974 130.152 16.9263 130.031 16.831C129.91 16.727 129.827 16.6013 129.784 16.454C129.715 16.298 129.702 16.129 129.745 15.947C129.814 15.6437 130.07 14.4217 130.512 12.281C130.833 10.721 131.132 9.49467 131.409 8.602C131.444 8.48933 131.491 8.38533 131.552 8.29C131.656 8.11667 131.79 7.978 131.955 7.874C132.128 7.76133 132.315 7.70067 132.514 7.692C133.147 7.68333 134 7.68333 135.075 7.692C136.15 7.692 137.003 7.68767 137.636 7.679C137.887 7.679 138.082 7.76567 138.221 7.939C138.36 8.11233 138.403 8.32467 138.351 8.576C138.299 8.81867 138.169 9.031 137.961 9.213C137.762 9.38633 137.536 9.473 137.285 9.473C136.8 9.473 136.076 9.473 135.114 9.473C134.152 9.46433 133.428 9.46433 132.943 9.473C132.804 10.0017 132.653 10.6257 132.488 11.345C132.904 11.3363 134.187 11.332 136.336 11.332C136.587 11.332 136.782 11.4187 136.921 11.592C137.068 11.7653 137.116 11.9777 137.064 12.229C137.012 12.4717 136.878 12.684 136.661 12.866C136.444 13.0393 136.21 13.126 135.959 13.126C133.801 13.126 132.523 13.1303 132.124 13.139C131.933 14.1097 131.79 14.7943 131.695 15.193C133.454 15.2103 134.923 15.219 136.102 15.219C136.353 15.219 136.544 15.3057 136.674 15.479C136.813 15.6523 136.856 15.8647 136.804 16.116C136.752 16.3673 136.618 16.5797 136.401 16.753C136.193 16.9263 135.963 17.013 135.712 17.013ZM139.401 16.987C139.167 16.9783 138.981 16.8873 138.842 16.714C138.704 16.5407 138.66 16.3283 138.712 16.077L139.492 12.333C139.752 11.0243 140.025 9.81533 140.311 8.706C140.372 8.472 140.511 8.26833 140.727 8.095C140.953 7.92167 141.191 7.83933 141.442 7.848C141.581 7.81333 141.837 7.783 142.209 7.757C142.582 7.72233 142.989 7.705 143.431 7.705C144.593 7.705 145.52 7.99533 146.213 8.576C146.915 9.148 147.266 9.98433 147.266 11.085C147.266 11.9257 147.058 12.7447 146.642 13.542C146.226 14.3393 145.698 15.037 145.056 15.635C144.528 16.1203 143.934 16.4713 143.275 16.688C142.617 16.896 141.949 17 141.273 17C140.259 17 139.635 16.9957 139.401 16.987ZM140.701 15.284C141.213 15.284 141.551 15.2797 141.715 15.271C142.374 15.2363 142.911 15.1193 143.327 14.92C143.743 14.7207 144.116 14.413 144.445 13.997C144.783 13.5637 145.035 13.1173 145.199 12.658C145.364 12.1987 145.446 11.7653 145.446 11.358C145.446 10.6907 145.247 10.201 144.848 9.889C144.458 9.56833 143.813 9.408 142.911 9.408C142.617 9.408 142.287 9.421 141.923 9.447L141.507 11.345L141.039 13.646C140.909 14.296 140.797 14.842 140.701 15.284ZM72.732 32.987C71.952 32.987 71.25 32.831 70.626 32.519C70.0107 32.1983 69.5253 31.7477 69.17 31.167C68.8147 30.5777 68.637 29.9017 68.637 29.139C68.637 28.1423 68.8797 27.2193 69.365 26.37C69.859 25.512 70.522 24.8317 71.354 24.329C72.1947 23.8263 73.1047 23.575 74.084 23.575C74.3093 23.575 74.474 23.5837 74.578 23.601C74.682 23.6183 74.8423 23.6617 75.059 23.731L75.384 23.835C75.5487 23.887 75.7177 23.9433 75.891 24.004C76.0643 24.0647 76.2117 24.134 76.333 24.212C76.827 24.55 77.2127 25.0093 77.49 25.59C77.7673 26.162 77.906 26.8077 77.906 27.527C77.906 28.463 77.6677 29.3513 77.191 30.192C76.723 31.0327 76.0903 31.7087 75.293 32.22C74.5043 32.7313 73.6507 32.987 72.732 32.987ZM73.031 31.232C73.6117 31.232 74.1317 31.076 74.591 30.764C75.059 30.4433 75.423 30.0273 75.683 29.516C75.9517 28.996 76.086 28.45 76.086 27.878C76.086 27.4707 75.9907 27.046 75.8 26.604C75.618 26.162 75.3883 25.85 75.111 25.668C75.007 25.5987 74.8163 25.5337 74.539 25.473C74.4783 25.4557 74.4133 25.4383 74.344 25.421C74.2747 25.395 74.201 25.3733 74.123 25.356C73.8977 25.3387 73.707 25.33 73.551 25.33C73.005 25.33 72.4937 25.4947 72.017 25.824C71.5403 26.1447 71.1633 26.5737 70.886 27.111C70.6087 27.6483 70.47 28.216 70.47 28.814C70.47 29.6027 70.691 30.205 71.133 30.621C71.5837 31.0283 72.2163 31.232 73.031 31.232ZM80.7792 32.181C80.7272 32.4323 80.5929 32.649 80.3762 32.831C80.1595 33.0043 79.9255 33.091 79.6742 33.091C79.4229 33.091 79.2279 33.0043 79.0892 32.831C78.9505 32.649 78.9072 32.4323 78.9592 32.181C79.0112 31.9297 79.2669 30.6687 79.7262 28.398C80.1942 26.1273 80.4715 24.8663 80.5582 24.615C80.6189 24.3637 80.7575 24.1557 80.9742 23.991C81.1909 23.8177 81.4249 23.731 81.6762 23.731C81.7195 23.731 81.7629 23.7353 81.8062 23.744C81.8235 23.744 81.8452 23.7397 81.8712 23.731C82.9632 23.5577 83.8039 23.4883 84.3932 23.523C85.5632 23.601 86.3692 24.0127 86.8112 24.758C87.1579 25.33 87.2662 25.941 87.1362 26.591C87.0062 27.241 86.6899 27.787 86.1872 28.229C85.7625 28.6017 85.2729 28.892 84.7182 29.1C84.1635 29.308 83.6219 29.425 83.0932 29.451C82.9112 29.4597 82.7205 29.4597 82.5212 29.451C82.3305 29.4423 82.0965 29.425 81.8192 29.399C81.5419 29.373 81.3859 29.3557 81.3512 29.347C81.0912 30.6557 80.9005 31.6003 80.7792 32.181ZM83.3922 27.631C83.7129 27.6223 84.0292 27.5617 84.3412 27.449C84.6532 27.3277 84.8959 27.1847 85.0692 27.02C85.1559 26.942 85.2165 26.8727 85.2512 26.812C85.2945 26.7427 85.3162 26.617 85.3162 26.435C85.3162 26.253 85.2685 26.0753 85.1732 25.902C84.9652 25.564 84.5405 25.3777 83.8992 25.343C83.4659 25.317 82.8939 25.356 82.1832 25.46C82.0532 26.0407 81.9015 26.7297 81.7282 27.527H81.7412L82.3392 27.592C82.5559 27.6093 82.7465 27.6223 82.9112 27.631C83.0759 27.6397 83.2362 27.6397 83.3922 27.631ZM91.2602 32.103C91.1995 32.3543 91.0608 32.5667 90.8442 32.74C90.6362 32.9133 90.4065 33 90.1552 33C89.9038 32.9913 89.7088 32.9003 89.5702 32.727C89.4315 32.545 89.3925 32.3283 89.4532 32.077C89.5138 31.8083 89.7695 30.582 90.2202 28.398C90.4455 27.28 90.6665 26.305 90.8832 25.473C90.1898 25.4817 89.6048 25.486 89.1282 25.486C88.8768 25.486 88.6775 25.4037 88.5302 25.239C88.3915 25.0743 88.3438 24.8663 88.3872 24.615C88.4392 24.3637 88.5692 24.1557 88.7772 23.991C88.9938 23.8177 89.2278 23.731 89.4792 23.731C90.0338 23.731 90.9525 23.7267 92.2352 23.718C93.5178 23.7093 94.4365 23.705 94.9912 23.705C95.2425 23.705 95.4375 23.7873 95.5762 23.952C95.7235 24.108 95.7712 24.3117 95.7192 24.563C95.6758 24.8057 95.5458 25.018 95.3292 25.2C95.1212 25.3733 94.8958 25.46 94.6532 25.46C94.1072 25.46 93.4572 25.4643 92.7032 25.473C92.4952 26.2703 92.2742 27.241 92.0402 28.385C91.5895 30.595 91.3295 31.8343 91.2602 32.103ZM96.0131 33.039C95.7618 33.039 95.5624 32.9567 95.4151 32.792C95.2678 32.6187 95.2158 32.4063 95.2591 32.155C95.3111 31.9297 95.4281 31.7303 95.6101 31.557C95.7921 31.375 95.9914 31.2667 96.2081 31.232C96.5374 29.724 96.9404 27.813 97.4171 25.499C97.2178 25.4557 97.0661 25.3517 96.9621 25.187C96.8581 25.0223 96.8321 24.8273 96.8841 24.602C96.9361 24.3507 97.0704 24.1383 97.2871 23.965C97.5038 23.7917 97.7378 23.705 97.9891 23.705L99.4581 23.718C99.7094 23.718 99.9001 23.809 100.03 23.991C100.169 24.173 100.212 24.3897 100.16 24.641C100.117 24.8577 100.004 25.0483 99.8221 25.213C99.6488 25.3777 99.4494 25.4817 99.2241 25.525C98.7648 27.8043 98.3704 29.6937 98.0411 31.193C98.2491 31.2277 98.4051 31.3273 98.5091 31.492C98.6218 31.6567 98.6608 31.8473 98.6261 32.064C98.5741 32.3153 98.4441 32.532 98.2361 32.714C98.0281 32.896 97.7984 32.9913 97.5471 33L96.0131 33.039ZM109.874 32.129C109.814 32.3803 109.671 32.5927 109.445 32.766C109.229 32.9393 108.995 33.0217 108.743 33.013C108.501 33.0043 108.31 32.909 108.171 32.727C108.033 32.545 107.998 32.3283 108.067 32.077C108.197 31.5137 108.54 29.8497 109.094 27.085C108.28 27.891 107.465 28.7533 106.65 29.672C106.46 29.88 106.234 30.01 105.974 30.062C105.723 30.1053 105.511 30.0577 105.337 29.919C105.311 29.9017 105.294 29.8843 105.285 29.867C105.199 29.8063 105.129 29.7327 105.077 29.646L103.621 27.124C103.621 27.1413 103.444 27.9733 103.088 29.62C102.742 31.258 102.564 32.0813 102.555 32.09C102.503 32.3413 102.369 32.558 102.152 32.74C101.944 32.9133 101.715 33 101.463 33C101.212 33 101.013 32.9133 100.865 32.74C100.727 32.558 100.683 32.3413 100.735 32.09C100.813 31.726 100.943 31.115 101.125 30.257C101.316 29.399 101.459 28.736 101.554 28.268C101.658 27.8 101.775 27.2193 101.905 26.526C102.018 25.9107 102.126 25.2737 102.23 24.615C102.265 24.3637 102.382 24.1427 102.581 23.952C102.789 23.7613 103.023 23.6573 103.283 23.64C103.413 23.6313 103.53 23.6487 103.634 23.692C103.868 23.7267 104.037 23.8437 104.141 24.043L106.26 27.67C107.474 26.37 108.674 25.2 109.861 24.16C110.113 23.848 110.412 23.6963 110.758 23.705C111.01 23.7137 111.2 23.809 111.33 23.991C111.469 24.173 111.508 24.3897 111.447 24.641C111.248 25.4643 110.979 26.7253 110.641 28.424C110.312 30.114 110.056 31.349 109.874 32.129ZM112.666 33.039C112.415 33.039 112.216 32.9567 112.068 32.792C111.921 32.6187 111.869 32.4063 111.912 32.155C111.964 31.9297 112.081 31.7303 112.263 31.557C112.445 31.375 112.645 31.2667 112.861 31.232C113.191 29.724 113.594 27.813 114.07 25.499C113.871 25.4557 113.719 25.3517 113.615 25.187C113.511 25.0223 113.485 24.8273 113.537 24.602C113.589 24.3507 113.724 24.1383 113.94 23.965C114.157 23.7917 114.391 23.705 114.642 23.705L116.111 23.718C116.363 23.718 116.553 23.809 116.683 23.991C116.822 24.173 116.865 24.3897 116.813 24.641C116.77 24.8577 116.657 25.0483 116.475 25.213C116.302 25.3777 116.103 25.4817 115.877 25.525C115.418 27.8043 115.024 29.6937 114.694 31.193C114.902 31.2277 115.058 31.3273 115.162 31.492C115.275 31.6567 115.314 31.8473 115.279 32.064C115.227 32.3153 115.097 32.532 114.889 32.714C114.681 32.896 114.452 32.9913 114.2 33L112.666 33.039ZM120.093 33C118.914 33 117.948 32.9827 117.194 32.948C116.96 32.9393 116.782 32.844 116.661 32.662C116.539 32.48 116.509 32.2677 116.57 32.025C116.63 31.7823 116.773 31.5743 116.999 31.401C117.302 31.1237 117.818 30.6037 118.546 29.841C121.18 27.4317 122.684 25.9843 123.057 25.499C121.167 25.5337 119.794 25.5207 118.936 25.46C118.693 25.4427 118.511 25.343 118.39 25.161C118.277 24.979 118.255 24.7623 118.325 24.511C118.394 24.2597 118.533 24.056 118.741 23.9C118.957 23.7353 119.183 23.6617 119.417 23.679C119.98 23.7137 120.565 23.7353 121.172 23.744C121.787 23.7527 122.489 23.7483 123.278 23.731C124.075 23.7137 124.669 23.705 125.059 23.705C125.293 23.705 125.475 23.7917 125.605 23.965C125.743 24.1383 125.787 24.3463 125.735 24.589C125.683 24.8143 125.574 25.0093 125.41 25.174C125.392 25.2 125.375 25.226 125.358 25.252C124.959 25.85 124.543 26.37 124.11 26.812C123.685 27.2453 122.216 28.606 119.703 30.894L119.378 31.219C119.664 31.219 120.01 31.2277 120.418 31.245C122.082 31.2103 123.083 31.193 123.421 31.193C123.655 31.193 123.837 31.2797 123.967 31.453C124.105 31.6263 124.149 31.8343 124.097 32.077C124.045 32.311 123.915 32.5147 123.707 32.688C123.499 32.8613 123.278 32.948 123.044 32.948C122.723 32.948 121.739 32.9653 120.093 33ZM124.898 32.467C124.881 32.3803 124.872 32.3153 124.872 32.272C124.872 32.1073 124.924 31.9427 125.028 31.778L129.539 24.407C129.834 23.9303 130.189 23.692 130.605 23.692C130.848 23.692 131.043 23.757 131.19 23.887C131.338 24.0083 131.433 24.1817 131.476 24.407L131.84 26.617L132.269 29.412L132.646 31.752C132.681 31.9773 132.651 32.1853 132.555 32.376C132.469 32.5667 132.343 32.7183 132.178 32.831C132.022 32.9437 131.862 33 131.697 33C131.264 33 131.008 32.8137 130.93 32.441L130.618 30.465L127.732 30.53L126.601 32.467C126.489 32.6403 126.341 32.779 126.159 32.883C125.986 32.9783 125.808 33.026 125.626 33.026C125.453 33.026 125.301 32.9783 125.171 32.883C125.033 32.7877 124.942 32.649 124.898 32.467ZM130.332 28.736L130.072 26.851L128.837 28.762L130.332 28.736ZM136.599 32.103C136.538 32.3543 136.4 32.5667 136.183 32.74C135.975 32.9133 135.745 33 135.494 33C135.243 32.9913 135.048 32.9003 134.909 32.727C134.77 32.545 134.731 32.3283 134.792 32.077C134.853 31.8083 135.108 30.582 135.559 28.398C135.784 27.28 136.005 26.305 136.222 25.473C135.529 25.4817 134.944 25.486 134.467 25.486C134.216 25.486 134.016 25.4037 133.869 25.239C133.73 25.0743 133.683 24.8663 133.726 24.615C133.778 24.3637 133.908 24.1557 134.116 23.991C134.333 23.8177 134.567 23.731 134.818 23.731C135.373 23.731 136.291 23.7267 137.574 23.718C138.857 23.7093 139.775 23.705 140.33 23.705C140.581 23.705 140.776 23.7873 140.915 23.952C141.062 24.108 141.11 24.3117 141.058 24.563C141.015 24.8057 140.885 25.018 140.668 25.2C140.46 25.3733 140.235 25.46 139.992 25.46C139.446 25.46 138.796 25.4643 138.042 25.473C137.834 26.2703 137.613 27.241 137.379 28.385C136.928 30.595 136.668 31.8343 136.599 32.103ZM141.352 33.039C141.101 33.039 140.901 32.9567 140.754 32.792C140.607 32.6187 140.555 32.4063 140.598 32.155C140.65 31.9297 140.767 31.7303 140.949 31.557C141.131 31.375 141.33 31.2667 141.547 31.232C141.876 29.724 142.279 27.813 142.756 25.499C142.557 25.4557 142.405 25.3517 142.301 25.187C142.197 25.0223 142.171 24.8273 142.223 24.602C142.275 24.3507 142.409 24.1383 142.626 23.965C142.843 23.7917 143.077 23.705 143.328 23.705L144.797 23.718C145.048 23.718 145.239 23.809 145.369 23.991C145.508 24.173 145.551 24.3897 145.499 24.641C145.456 24.8577 145.343 25.0483 145.161 25.213C144.988 25.3777 144.788 25.4817 144.563 25.525C144.104 27.8043 143.709 29.6937 143.38 31.193C143.588 31.2277 143.744 31.3273 143.848 31.492C143.961 31.6567 144 31.8473 143.965 32.064C143.913 32.3153 143.783 32.532 143.575 32.714C143.367 32.896 143.137 32.9913 142.886 33L141.352 33.039ZM150.26 32.987C149.48 32.987 148.778 32.831 148.154 32.519C147.539 32.1983 147.054 31.7477 146.698 31.167C146.343 30.5777 146.165 29.9017 146.165 29.139C146.165 28.1423 146.408 27.2193 146.893 26.37C147.387 25.512 148.05 24.8317 148.882 24.329C149.723 23.8263 150.633 23.575 151.612 23.575C151.838 23.575 152.002 23.5837 152.106 23.601C152.21 23.6183 152.371 23.6617 152.587 23.731L152.912 23.835C153.077 23.887 153.246 23.9433 153.419 24.004C153.593 24.0647 153.74 24.134 153.861 24.212C154.355 24.55 154.741 25.0093 155.018 25.59C155.296 26.162 155.434 26.8077 155.434 27.527C155.434 28.463 155.196 29.3513 154.719 30.192C154.251 31.0327 153.619 31.7087 152.821 32.22C152.033 32.7313 151.179 32.987 150.26 32.987ZM150.559 31.232C151.14 31.232 151.66 31.076 152.119 30.764C152.587 30.4433 152.951 30.0273 153.211 29.516C153.48 28.996 153.614 28.45 153.614 27.878C153.614 27.4707 153.519 27.046 153.328 26.604C153.146 26.162 152.917 25.85 152.639 25.668C152.535 25.5987 152.345 25.5337 152.067 25.473C152.007 25.4557 151.942 25.4383 151.872 25.421C151.803 25.395 151.729 25.3733 151.651 25.356C151.426 25.3387 151.235 25.33 151.079 25.33C150.533 25.33 150.022 25.4947 149.545 25.824C149.069 26.1447 148.692 26.5737 148.414 27.111C148.137 27.6483 147.998 28.216 147.998 28.814C147.998 29.6027 148.219 30.205 148.661 30.621C149.112 31.0283 149.745 31.232 150.559 31.232ZM163.183 32.948C162.836 33.0087 162.576 32.9047 162.403 32.636C161.969 31.9513 161.454 30.9373 160.856 29.594C160.188 28.2333 159.703 27.3103 159.4 26.825C159.339 27.1717 159.2 27.943 158.984 29.139C158.767 30.3263 158.572 31.3143 158.399 32.103C158.347 32.3543 158.212 32.571 157.996 32.753C157.779 32.9263 157.545 33.013 157.294 33.013C157.042 33.013 156.847 32.9263 156.709 32.753C156.57 32.571 156.527 32.3543 156.579 32.103C156.743 31.3403 156.982 30.1097 157.294 28.411C157.606 26.7037 157.874 25.4123 158.1 24.537C158.16 24.2857 158.299 24.0733 158.516 23.9C158.741 23.7267 158.975 23.6443 159.218 23.653C159.339 23.6617 159.452 23.6877 159.556 23.731C159.712 23.783 159.833 23.8783 159.92 24.017C160.032 24.199 160.21 24.4893 160.453 24.888C160.704 25.278 160.89 25.5727 161.012 25.772C161.384 26.2747 161.904 27.202 162.572 28.554L163.014 29.451C163.464 27.4403 163.815 25.8067 164.067 24.55C164.119 24.2987 164.249 24.0863 164.457 23.913C164.673 23.731 164.907 23.64 165.159 23.64C165.41 23.6313 165.605 23.7137 165.744 23.887C165.882 24.0603 165.93 24.2727 165.887 24.524C165.644 25.7027 165.098 28.2117 164.249 32.051C164.188 32.2937 164.058 32.5017 163.859 32.675C163.659 32.8397 163.434 32.9307 163.183 32.948Z" fill="#14161B"/>
</svg>
