<svg width="182" height="33" viewBox="0 0 182 33" fill="none" xmlns="http://www.w3.org/2000/svg">
<path fill-rule="evenodd" clip-rule="evenodd" d="M5.68573 0.00106607C3.46617 0.00106607 1.33782 1.29442 0.48648 3.09973C0.091215 3.88113 0 4.74337 0 5.57867C0.0152025 8.35399 0.0152025 11.136 0.0152025 13.9215C0.0152025 16.7069 0.0152025 19.4957 0.0304051 22.2845C0.0608101 24.8443 2.58442 27.1346 5.47289 27.2154C8.92655 27.227 12.3802 27.2237 15.8315 27.2204C20.4319 27.216 25.0282 27.2116 29.6144 27.2424C31.8218 28.2932 33.9964 29.3732 36.1709 30.4531C37.6206 31.1731 39.0704 31.8931 40.5298 32.6044C40.1194 31.7018 39.7089 30.8059 39.2985 29.91C38.888 29.0141 38.4775 28.1181 38.067 27.2154C40.1042 27.2154 42.1413 27.2184 44.1784 27.2214C48.2527 27.2274 52.3269 27.2334 56.4012 27.2154C59.2897 27.1615 61.8133 24.8443 61.8437 22.2845V5.20144C61.8741 3.74641 61.1748 2.29139 59.9586 1.32137C58.8944 0.459136 57.435 -0.0258788 55.9755 0.00106607H5.68573ZM28.2779 3.57922C27.5818 2.5674 25.8266 2.29393 24.9188 3.16902C24.4235 3.71605 24.1284 4.37612 23.8286 5.04645C23.7987 5.11336 23.7688 5.18036 23.7386 5.24737C22.2557 8.72039 21.6807 12.4669 21.2268 16.1587C20.1676 13.7248 19.4413 11.1542 18.8966 8.58366C18.7756 8.00938 18.594 7.38041 18.1401 6.94286C17.5651 6.39593 16.5967 6.36858 15.9309 6.75143C15.4468 7.0249 15.1139 7.48979 14.8415 7.95468C13.0258 11.0995 11.2101 14.2171 9.39434 17.3346C8.3049 13.424 7.54835 9.45875 6.88259 5.46614C6.7918 4.94656 6.67075 4.37227 6.21682 4.01677C5.58132 3.49718 4.58267 3.55188 3.82612 3.798C2.88799 4.12616 2.49459 5.16533 2.70642 6.01308C2.74986 6.25112 2.79323 6.48923 2.83661 6.72737C3.73011 11.6325 4.62667 16.5545 6.1563 21.3272C6.24643 21.5541 6.32835 21.7897 6.41108 22.0276C6.71722 22.9079 7.03452 23.8204 7.82071 24.4447C8.48648 24.9096 9.36408 24.4994 9.87853 24.0345C11.089 22.9406 11.9061 21.546 12.6626 20.1786C13.7521 18.1823 14.8718 16.1587 15.9915 14.1624C17.1112 17.5807 18.6545 20.999 21.3781 23.6517C21.9834 24.2533 22.861 24.8276 23.7991 24.6361C24.7977 24.4174 25.2517 23.4055 25.1911 22.5578C25.0096 19.2488 25.4938 15.9399 26.0687 12.6857C26.5529 10.1971 27.0977 7.65387 28.3687 5.35675C28.6713 4.80982 28.641 4.09881 28.2779 3.57922ZM40.5945 6.88816C39.263 5.54818 37.1447 4.94656 35.1776 5.16533C33.9974 5.30206 32.8777 5.76695 31.9698 6.50531C28.8529 9.10324 27.6121 13.2599 28.3384 17.0064C28.7015 18.6472 29.5791 20.288 31.1528 21.2725C33.1198 22.4484 35.8434 22.5851 37.871 21.4639C39.263 20.7256 40.2314 19.495 40.9879 18.237C42.3195 16.0219 42.8339 13.3967 42.501 10.9081C42.2892 9.45875 41.684 8.00938 40.5945 6.88816ZM33.5132 10.7714C34.0277 10.0604 34.6329 9.26732 35.571 8.99386C36.2368 8.80243 37.0236 9.0212 37.417 9.51344C38.3854 10.8261 38.5367 12.4942 38.2341 13.9983C37.9315 15.3383 37.3565 16.6783 36.2065 17.5807C35.6921 17.9909 35.0263 18.3738 34.3 18.2644C33.604 18.155 33.1803 17.5807 32.908 17.0611C31.8791 15.0648 32.2422 12.631 33.5132 10.7714ZM56.2098 6.77878C54.8782 5.49349 52.7902 4.94656 50.8836 5.16533C49.5824 5.30206 48.3416 5.90368 47.3127 6.72408C44.1655 9.67752 43.0155 14.2718 44.3773 18.1823C44.8918 19.4676 45.7694 20.6709 47.0706 21.3819C49.0074 22.421 51.6099 22.5304 53.5467 21.4639C54.9993 20.6982 55.9979 19.4403 56.7545 18.155C58.0255 16.0219 58.5097 13.506 58.2373 11.0995C58.0558 9.51344 57.4202 7.95468 56.2098 6.77878ZM49.1571 10.9757C49.6945 10.193 50.2964 9.31627 51.3073 8.99386C51.9731 8.80243 52.7599 9.0212 53.123 9.48609C54.0006 10.6347 54.2427 12.084 54.0612 13.424C53.8796 14.8734 53.3651 16.3501 52.1849 17.3893C51.6402 17.8542 50.9744 18.2917 50.2179 18.2644C49.5219 18.237 49.0074 17.7174 48.735 17.1705C47.6759 15.2289 47.9785 12.8497 49.1284 11.0175L49.1571 10.9757Z" fill="#14161B"/>
<path fill-rule="evenodd" clip-rule="evenodd" d="M71.9136 5.53763C73.5838 5.21838 75.3452 5.24499 77.0155 5.59084C77.0155 6.788 77.0155 7.98517 77.0155 9.18233C75.6489 8.88969 74.1001 8.62366 72.7943 9.18233C71.2151 9.87403 70.3344 11.4436 70.3344 12.9334C70.2433 14.4233 70.8203 16.0993 72.3387 16.9506C73.7357 17.7487 75.5274 17.5891 77.0459 17.2166C77.0459 18.4138 77.0459 19.611 77.0459 20.8081C75.0112 21.3136 72.7943 21.2604 70.8203 20.6219C68.4515 19.8504 66.5687 18.0414 65.8398 15.9131C65.2932 14.2902 65.2325 12.561 65.6576 10.9116C66.3561 8.27781 68.9071 6.12291 71.9136 5.53763ZM84.2432 5.3514C86.3083 5.13857 88.5556 5.43121 90.2259 6.57517C91.8354 7.66592 92.625 9.44837 92.9287 11.151C93.202 13.0399 93.1413 15.0085 92.4731 16.8176C91.8961 18.3606 90.7118 19.7972 89.0111 20.5155C87.2801 21.2338 85.2454 21.287 83.3929 20.9146C81.6923 20.5687 80.1738 19.5844 79.3235 18.2276C78.1391 16.4185 77.9265 14.2636 78.0177 12.2152C78.1088 10.4593 78.625 8.62365 79.9613 7.26687C81.0545 6.17611 82.6337 5.51102 84.2432 5.3514ZM84.881 8.78328C84.0003 8.9695 83.484 9.74101 83.2714 10.4593C82.8463 11.8959 82.907 13.3857 83.0285 14.8489C83.15 15.647 83.2411 16.4983 83.8788 17.1368C84.7291 17.9882 86.4601 17.8817 87.2194 17.0038C87.7356 16.4451 87.8875 15.7268 87.9786 15.0351C88.1608 13.8114 88.1912 12.561 87.9786 11.3372C87.8267 10.5923 87.5838 9.82082 86.9764 9.26214C86.4298 8.78328 85.6098 8.62366 84.881 8.78328ZM165.874 5.59084C167.636 5.19178 169.488 5.24499 171.249 5.56423C171.28 6.7614 171.249 7.95856 171.28 9.18233C169.944 8.88969 168.456 8.62365 167.15 9.12912C165.631 9.74101 164.72 11.151 164.599 12.561C164.417 14.1572 164.902 15.9663 166.512 16.8974C167.909 17.7487 169.731 17.5891 171.28 17.19C171.249 18.3872 171.31 19.611 171.249 20.8081C169.093 21.287 166.725 21.2338 164.69 20.4623C162.443 19.611 160.681 17.8019 160.043 15.7268C159.558 14.1306 159.497 12.428 159.952 10.8052C160.62 8.30441 163.02 6.25593 165.874 5.59084ZM95.6315 5.69725C97.5751 5.69725 99.549 5.69725 101.493 5.69725C102.191 8.46403 102.859 11.2574 103.467 14.0508C104.013 11.2308 104.772 8.46403 105.532 5.69725C107.536 5.69725 109.54 5.69725 111.545 5.69725C112.334 10.7253 113.093 15.7534 113.853 20.7549C112.334 20.7549 110.785 20.7549 109.267 20.7549C108.842 17.3231 108.477 13.8646 108.022 10.4327C107.08 13.8646 106.109 17.3231 105.167 20.7549C104.135 20.7549 103.072 20.7549 102.039 20.7549C101.037 17.3231 100.065 13.8646 99.0328 10.4061C98.638 13.838 98.2432 17.2965 97.8484 20.7549C96.3907 20.7549 94.933 20.7549 93.4449 20.7549C94.1738 15.7534 94.9026 10.7253 95.6315 5.69725ZM116.647 5.69725C118.59 5.69725 120.564 5.69725 122.508 5.69725C123.206 8.46403 123.874 11.2574 124.482 14.0508C125.059 11.2574 125.788 8.46403 126.547 5.69725H132.529C133.319 10.7253 134.078 15.7534 134.837 20.7549C133.319 20.7549 131.77 20.7549 130.252 20.7549C129.827 17.3231 129.432 13.8646 129.007 10.4327C128.065 13.8646 127.124 17.3231 126.152 20.7549C125.119 20.7549 124.057 20.7549 123.024 20.7549C122.022 17.2965 121.02 13.8646 120.018 10.4061C119.623 13.8646 119.228 17.2965 118.833 20.7549C117.375 20.7549 115.918 20.7549 114.43 20.7549C115.189 15.7534 115.918 10.7253 116.647 5.69725ZM136.174 5.75045C139.302 5.69724 142.46 5.75046 145.588 5.72386C145.588 6.788 145.588 7.85214 145.588 8.94289C144.009 8.9695 142.43 8.94289 140.85 8.94289C140.85 9.87402 140.85 10.7786 140.85 11.7097C142.217 11.7097 143.584 11.7097 144.95 11.7097C144.95 12.7472 144.95 13.7848 144.95 14.8223C143.584 14.8223 142.217 14.8223 140.85 14.8223C140.85 15.7268 140.85 16.658 140.85 17.5891C142.43 17.5891 144.039 17.5891 145.618 17.5891C145.618 18.6532 145.618 19.7174 145.618 20.8081C142.49 20.8081 139.332 20.8081 136.204 20.8081C136.174 15.78 136.234 10.7785 136.174 5.75045ZM146.924 5.69725C148.898 5.69725 150.842 5.67065 152.816 5.69725C154.668 5.75046 156.642 6.14951 158.009 7.29347C159.254 8.30441 159.679 9.98044 159.193 11.3904C158.798 12.5344 157.827 13.4655 156.612 13.971C157.827 16.2323 159.072 18.4936 160.317 20.7549C158.677 20.7549 157.037 20.7549 155.427 20.7549C154.152 18.4404 152.907 16.1259 151.601 13.838C151.571 16.1525 151.601 18.467 151.601 20.7549C150.052 20.7549 148.503 20.7549 146.955 20.7549C146.924 15.7534 146.924 10.7253 146.924 5.69725ZM151.571 8.59705C151.571 9.79422 151.571 10.9914 151.571 12.1885C152.421 12.1353 153.332 12.1087 154.03 11.6565C154.85 11.1244 154.759 10.0336 154.243 9.34195C153.605 8.67686 152.482 8.67686 151.571 8.59705ZM172.586 5.72386C175.714 5.72386 178.842 5.72386 181.97 5.72386C181.97 6.788 181.97 7.87875 181.97 8.94289C180.39 8.94289 178.781 8.94289 177.202 8.94289C177.202 9.87402 177.202 10.7786 177.202 11.7097C178.568 11.7097 179.935 11.7097 181.301 11.7097C181.301 12.7472 181.301 13.7848 181.301 14.8223H177.202C177.202 15.7534 177.202 16.658 177.202 17.5891C178.811 17.5891 180.39 17.5891 182 17.5891C182 18.6532 182 19.7174 182 20.8081C178.872 20.8081 175.714 20.8081 172.586 20.8081C172.555 15.7534 172.586 10.7253 172.586 5.72386Z" fill="#14161B"/>
</svg>
