<svg width="190" height="44" viewBox="0 0 190 44" fill="none" xmlns="http://www.w3.org/2000/svg">
<path d="M110.197 17.0205H102.717V17.8164C105.057 17.8164 105.433 18.3193 105.433 21.2951V26.6599C105.433 29.6355 105.057 30.1804 102.717 30.1804C100.921 29.9291 99.7091 28.9649 98.0378 27.1209L96.116 25.0256C98.7063 24.5639 100.085 22.9299 100.085 21.0855C100.085 18.7809 98.1215 17.0205 94.4443 17.0205H87.0906V17.8164C89.4301 17.8164 89.8062 18.3193 89.8062 21.2951V26.6599C89.8062 29.6355 89.4301 30.1804 87.0906 30.1804V30.9766H95.4052V30.1804C93.0658 30.1804 92.6896 29.6355 92.6896 26.6599V25.1515H93.3997L98.0378 30.9766H110.197C116.172 30.9766 118.762 27.7918 118.762 23.9774C118.762 20.1637 116.172 17.0205 110.197 17.0205ZM92.69 23.8514V18.278H94.4028C96.2827 18.278 97.1187 19.5771 97.1187 21.0859C97.1187 22.553 96.2827 23.8517 94.4028 23.8517H92.69V23.8514ZM110.322 29.6775H110.03C108.526 29.6775 108.317 29.3005 108.317 27.3725V18.278C108.317 18.278 110.155 18.278 110.322 18.278C114.668 18.278 115.461 21.4628 115.461 23.9357C115.461 26.492 114.667 29.6775 110.322 29.6775Z" fill="#14161B"/>
<path d="M63.8183 25.4028L66.7014 16.8524C67.5374 14.3799 67.1612 13.6677 64.4872 13.6677V12.8291H72.3423V13.6677C69.7101 13.6677 69.0834 14.2962 68.0388 17.3557L63.275 31.6891H62.7321L58.4698 18.5708L54.1248 31.6891H53.5815L48.9437 17.3557C47.941 14.2962 47.2724 13.6677 44.8489 13.6677V12.8291H54.1248V13.6677C51.6593 13.6677 50.9905 14.2542 51.8683 16.8524L54.6677 25.4028L58.8878 12.8291H59.6819L63.8183 25.4028Z" fill="#14161B"/>
<path d="M78.0238 31.5211C73.4279 31.5211 69.6673 28.1267 69.6673 23.977C69.6673 19.87 73.4282 16.4749 78.0238 16.4749C82.62 16.4749 86.3803 19.87 86.3803 23.977C86.3803 28.1267 82.62 31.5211 78.0238 31.5211ZM78.0238 17.775C74.1801 17.775 72.8427 21.2531 72.8427 23.9773C72.8427 26.7439 74.1801 30.1803 78.0238 30.1803C81.91 30.1803 83.247 26.7439 83.247 23.9773C83.247 21.2531 81.91 17.775 78.0238 17.775Z" fill="#14161B"/>
<path d="M129.082 30.1384V30.9766H119.514V30.1384C122.314 30.1384 122.815 29.4262 122.815 25.2345V18.5293C122.815 14.3376 122.314 13.6674 119.514 13.6674V12.8289H128.163C132.466 12.8289 134.849 15.0502 134.849 18.0264C134.849 20.9183 132.466 23.1812 128.163 23.1812H125.781V25.2342C125.781 29.4262 126.282 30.1384 129.082 30.1384ZM128.163 14.3376H125.781V21.6305H128.163C130.503 21.6305 131.589 19.9961 131.589 18.0264C131.589 16.0147 130.503 14.3376 128.163 14.3376Z" fill="#14161B"/>
<path d="M163.552 27.0372L163.343 27.7914C162.967 29.1745 162.507 29.6775 159.541 29.6775H158.956C156.783 29.6775 156.407 29.1745 156.407 26.199V24.2714C159.666 24.2714 159.917 24.5643 159.917 26.7439H160.711V20.4989H159.917C159.917 22.6782 159.666 22.9715 156.407 22.9715V18.278H158.705C161.672 18.278 162.131 18.7809 162.507 20.164L162.717 20.9599H163.385L163.093 17.0205H150.808V17.8164C153.148 17.8164 153.524 18.3193 153.524 21.2951V26.6599C153.524 29.3821 153.205 30.0678 151.36 30.1656C149.607 29.897 148.403 28.9377 146.756 27.1209L144.834 25.0256C147.424 24.5639 148.803 22.9299 148.803 21.0855C148.803 18.7809 146.84 17.0205 143.163 17.0205H135.809V17.8164C138.148 17.8164 138.525 18.3193 138.525 21.2951V26.6599C138.525 29.6355 138.149 30.1804 135.809 30.1804V30.9766H144.124V30.1804C141.784 30.1804 141.408 29.6355 141.408 26.6599V25.1515H142.118L146.756 30.9766H163.929L164.18 27.0376H163.552V27.0372ZM141.408 23.8514V18.278H143.12C145.001 18.278 145.837 19.5771 145.837 21.0859C145.837 22.553 145.001 23.8517 143.12 23.8517H141.408V23.8514Z" fill="#14161B"/>
<path d="M172.035 31.5212C170.363 31.5212 168.901 30.6414 168.274 30.0961C168.065 30.3061 167.689 30.9347 167.606 31.5212H166.812V25.7382H167.647C167.982 28.5041 169.903 30.1385 172.369 30.1385C173.706 30.1385 174.792 29.3843 174.792 28.1272C174.792 27.0377 173.831 26.1991 172.118 25.4029L169.737 24.2715C168.065 23.4746 166.812 22.0914 166.812 20.2478C166.812 18.2361 168.692 16.518 171.283 16.518C172.662 16.518 173.831 17.021 174.542 17.6075C174.75 17.4399 174.959 16.9786 175.085 16.4753H175.879V21.4212H175.001C174.709 19.4512 173.622 17.8168 171.408 17.8168C170.238 17.8168 169.151 18.4874 169.151 19.5356C169.151 20.625 170.029 21.2116 172.035 22.1338L174.332 23.2653C176.338 24.2291 177.132 25.7806 177.132 27.0377C177.132 29.6776 174.834 31.5212 172.035 31.5212Z" fill="#14161B"/>
<path d="M184.903 31.5212C183.231 31.5212 181.769 30.6414 181.142 30.0961C180.933 30.3061 180.558 30.9347 180.474 31.5212H179.68V25.7382H180.516C180.85 28.5041 182.772 30.1385 185.237 30.1385C186.574 30.1385 187.661 29.3843 187.661 28.1272C187.661 27.0377 186.7 26.1991 184.986 25.4029L182.605 24.2715C180.933 23.4746 179.68 22.0914 179.68 20.2478C179.68 18.2361 181.56 16.518 184.151 16.518C185.53 16.518 186.699 17.021 187.41 17.6075C187.619 17.4399 187.828 16.9786 187.953 16.4753H188.747V21.4212H187.87C187.577 19.4512 186.491 17.8168 184.276 17.8168C183.106 17.8168 182.02 18.4874 182.02 19.5356C182.02 20.625 182.897 21.2116 184.903 22.1338L187.201 23.2653C189.207 24.2291 190 25.7806 190 27.0377C190 29.6776 187.702 31.5212 184.903 31.5212Z" fill="#14161B"/>
<path d="M3.06441 21.6201C3.06441 28.9617 7.31795 35.3062 13.4859 38.3128L4.66534 14.0718C3.63933 16.3785 3.06441 18.9312 3.06441 21.6201Z" fill="#14161B"/>
<path d="M34.0379 20.6845C34.0379 18.3922 33.217 16.8047 32.513 15.5692C31.5756 14.0413 30.6971 12.7475 30.6971 11.2197C30.6971 9.51472 31.9862 7.92762 33.8021 7.92762C33.8841 7.92762 33.9619 7.93785 34.0418 7.94244C30.7519 4.91928 26.3689 3.07349 21.5549 3.07349C15.0949 3.07349 9.41138 6.39804 6.10503 11.4336C6.53886 11.4466 6.94771 11.4558 7.29499 11.4558C9.22912 11.4558 12.223 11.2204 12.223 11.2204C13.2198 11.1615 13.3374 12.63 12.3416 12.7482C12.3416 12.7482 11.3399 12.8665 10.2252 12.925L16.959 33.0153L21.0056 20.8419L18.1247 12.9243C17.1289 12.8657 16.1856 12.7475 16.1856 12.7475C15.1892 12.6889 15.306 11.1608 16.3024 11.2197C16.3024 11.2197 19.3561 11.4551 21.1731 11.4551C23.1069 11.4551 26.1012 11.2197 26.1012 11.2197C27.0987 11.1608 27.2158 12.6293 26.2197 12.7475C26.2197 12.7475 25.2159 12.8657 24.1033 12.9243L30.7857 32.8625L32.6301 26.6803C33.4295 24.1149 34.0379 22.2723 34.0379 20.6845Z" fill="#14161B"/>
<path d="M21.8793 23.2424L16.3313 39.4131C17.9878 39.9016 19.7397 40.1687 21.5549 40.1687C23.7082 40.1687 25.7733 39.7953 27.6954 39.1174C27.6458 39.0379 27.6008 38.9536 27.5638 38.8618L21.8793 23.2424Z" fill="#14161B"/>
<path d="M37.7803 12.7217C37.8598 13.3125 37.9048 13.9467 37.9048 14.6289C37.9048 16.511 37.5544 18.6268 36.4988 21.2724L30.8505 37.6527C36.3479 34.4372 40.0455 28.4632 40.0455 21.6207C40.0459 18.396 39.2246 15.3637 37.7803 12.7217Z" fill="#14161B"/>
<path d="M21.5552 0C9.66996 0 0 9.69874 0 21.6202C0 33.5431 9.66996 43.2415 21.5552 43.2415C33.4401 43.2415 43.1114 33.5431 43.1114 21.6202C43.1111 9.69874 33.4401 0 21.5552 0ZM21.5552 42.2504C10.215 42.2504 0.988354 32.9957 0.988354 21.6202C0.988354 10.2454 10.2146 0.991367 21.5552 0.991367C32.895 0.991367 42.121 10.2454 42.121 21.6202C42.121 32.9957 32.895 42.2504 21.5552 42.2504Z" fill="#14161B"/>
</svg>
